<svg version="1.1" id="implementacion_v3" xmlns="http://www.w3.org/2000/svg" xmlns:xlink="http://www.w3.org/1999/xlink" x="0px" y="0px"
	 width="131.124px" height="127.866px" viewBox="25.116 67.554 131.124 127.866"
	 enable-background="new 25.116 67.554 131.124 127.866" xml:space="preserve">
<g>
	<g>
		<circle fill="#FFFFFF" cx="46.884" cy="148.729" r="17.049"/>
		<g>
			<path fill="#663903" d="M42.205,145.98c0,0-0.86-0.881-0.129-1.395c1.295-0.906,1.76,1.549,2.875,1.359
				c0.635-0.107,0.334-2.418,1.918-2.076c1.582,0.34,0.332,2.016,1.018,2.221c0.683,0.201,2.533-1.699,3.052-0.521
				c0.396,0.895-0.235,0.807-1.667,2.262c-1.43,1.451-0.441,2.889-0.441,2.889s3.09,4.16,2.877,7.562
				c-0.248,3.973-3.578,4.605-6.479,4.283c-1.955-0.219-3.683-1.518-3.792-4.781c-0.109-3.252,2.541-5.846,3.042-7.568
				C44.979,148.488,42.205,145.98,42.205,145.98z"/>
			<g>
				<path fill="#EAA155" d="M45.16,151.461c-0.746-0.037-1.148-0.213-1.261-0.541c-0.147-0.434,0.539-0.951,0.634-1.025l-0.062,0.4
					c-0.035,0.164-0.183,0.383-0.081,0.459c0,0.002,0.105,0.178,0.99,0.193c0.89,0.012,3.164,0.062,3.449-0.229
					c-0.232-0.342-0.309-0.852-0.309-0.852c0.258,0.027,0.842,0.23,0.896,0.805c0.011,0.137-0.031,0.264-0.129,0.369
					c-0.371,0.402-1.559,0.455-3.914,0.422C45.3,151.465,45.228,151.463,45.16,151.461z"/>
			</g>
			
				<text transform="matrix(0.9988 0.0485 -0.0485 0.9988 44.75 159.0156)" fill="#FFAA3C" font-family="'PTSans-Bold'" font-size="6.0836">$</text>
			<g>
				<path fill="#FFCF70" stroke="#EAA155" stroke-width="0.2593" stroke-miterlimit="10" d="M42.317,139.863
					c-0.043,0.883-0.794,1.564-1.678,1.521s-1.565-0.793-1.522-1.676c0.043-0.887,0.795-1.566,1.678-1.523
					C41.679,138.227,42.36,138.979,42.317,139.863z"/>
				
					<text transform="matrix(0.9988 0.0485 -0.0485 0.9988 40.1533 140.5273)" fill="#EAA155" font-family="'PTSans-Regular'" font-size="1.8802">$</text>
			</g>
			<g>
				<circle fill="#FFCF70" stroke="#EAA155" stroke-width="0.2593" stroke-miterlimit="10" cx="44.646" cy="141.729" r="1.603"/>
				
					<text transform="matrix(0.9988 0.0485 -0.0485 0.9988 44.083 142.4727)" fill="#EAA155" font-family="'PTSans-Regular'" font-size="1.8802">$</text>
			</g>
			<g>
				<circle fill="#FFCF70" stroke="#EAA155" stroke-width="0.2593" stroke-miterlimit="10" cx="47.814" cy="138.856" r="1.603"/>
				
					<text transform="matrix(0.9988 0.0485 -0.0485 0.9988 47.25 139.5996)" fill="#EAA155" font-family="'PTSans-Regular'" font-size="1.8802">$</text>
			</g>
			<g>
				<circle fill="#FFCF70" stroke="#EAA155" stroke-width="0.2593" stroke-miterlimit="10" cx="49.306" cy="142.728" r="1.603"/>
				
					<text transform="matrix(0.9988 0.0485 -0.0485 0.9988 48.7412 143.4688)" fill="#EAA155" font-family="'PTSans-Regular'" font-size="1.8802">$</text>
			</g>
			<g>
				<circle fill="#FFCF70" stroke="#EAA155" stroke-width="0.2593" stroke-miterlimit="10" cx="53.058" cy="140.385" r="1.602"/>
				
					<text transform="matrix(0.9988 0.0485 -0.0485 0.9988 52.4937 141.127)" fill="#EAA155" font-family="'PTSans-Regular'" font-size="1.8802">$</text>
			</g>
		</g>
	</g>
	
		<line opacity="0.4" fill="none" stroke="#FFFFFF" stroke-width="1.474" stroke-linecap="round" stroke-miterlimit="10" stroke-dasharray="2.211,2.211" x1="64.459" y1="105.879" x2="95.332" y2="105.879"/>
	
		<line opacity="0.4" fill="none" stroke="#FFFFFF" stroke-width="1.474" stroke-linecap="round" stroke-miterlimit="10" stroke-dasharray="2.211,2.211" x1="95.332" y1="126.529" x2="111.92" y2="126.529"/>
	
		<line opacity="0.4" fill="none" stroke="#FFFFFF" stroke-width="1.474" stroke-linecap="round" stroke-miterlimit="10" stroke-dasharray="2.211,2.211" x1="93.199" y1="149.764" x2="93.199" y2="105.879"/>
	
		<line opacity="0.4" fill="none" stroke="#FFFFFF" stroke-width="1.474" stroke-linecap="round" stroke-miterlimit="10" stroke-dasharray="2.211,2.211" x1="64.459" y1="149.764" x2="95.332" y2="149.764"/>
	<g>
		<ellipse opacity="0.1" fill="#FFFFFF" cx="127.31" cy="183.717" rx="26.386" ry="9.969"/>
		<g>
			<path fill="#C9AA85" d="M143.694,95.049c0.022,9.282-7.412,16.828-16.609,16.852c-9.189,0.023-16.661-7.488-16.686-16.77
				c-0.022-9.285,7.413-16.831,16.604-16.852C136.198,78.256,143.673,85.765,143.694,95.049z"/>
			<path fill="#523F32" d="M123.237,95.833c0.002,0.791-0.385,1.436-0.867,1.437c-0.479,0-0.869-0.642-0.869-1.433
				c-0.004-0.791,0.383-1.434,0.86-1.434C122.845,94.403,123.235,95.043,123.237,95.833z"/>
			<path fill="#523F32" d="M134.22,95.833c0.002,0.791-0.385,1.436-0.868,1.437c-0.479,0.001-0.869-0.642-0.871-1.433
				c-0.001-0.791,0.384-1.432,0.863-1.434C133.827,94.403,134.218,95.043,134.22,95.833z"/>
			<path fill="#B2967B" d="M128.891,100.641c0,0-0.511-0.457-1.255-0.456c-0.719,0.001-1.27,0.462-1.27,0.462
				s0.256-1.15,1.268-1.152C128.645,99.492,128.891,100.641,128.891,100.641z"/>
			<circle fill="#C9AA85" cx="111.176" cy="97.968" r="2.499"/>
			<circle fill="#C9AA85" cx="143.411" cy="97.901" r="2.499"/>
			<path fill="#8C8C8C" d="M141.501,131.35c-0.526-2.564-3.403-9.918-5.58-12.945c-0.027-0.039-0.063-0.062-0.096-0.096
				c-0.268-0.312-0.619-0.602-1.097-0.85c-3.499-1.817-13.611-2.078-15.79,0.945c-2.177,3.027-5.052,10.379-5.579,12.945
				c-0.527,2.564-0.904,13.146-0.904,13.146h2.487c0,0,0.69-10.846,1.208-13.146s3.729-8.045,3.729-8.045l0.725,22.133l13.542,0.146
				l1.116-21.77c0.792,1.453,3.024,5.648,3.448,7.535c0.518,2.301,1.207,13.145,1.207,13.145h2.488
				C142.403,144.496,142.027,133.914,141.501,131.35z"/>
			<polygon fill="#0C193E" points="120.588,145.053 121.172,153.369 133.159,153.369 134.171,145.111 			"/>
			<polygon fill="#0C193E" points="121.172,151.705 122.817,184.342 125.872,184.342 126.344,151.705 			"/>
			<polygon fill="#0C193E" points="133.314,151.705 131.669,184.342 128.612,184.342 128.143,151.705 			"/>
			<polygon fill="#502212" points="128.612,184.342 128.63,188.689 129.901,188.689 129.901,187.75 131.429,188.689 
				136.835,188.689 131.669,184.342 			"/>
			<polygon fill="#502212" points="125.837,184.342 125.819,188.689 124.548,188.689 124.548,187.75 123.021,188.689 
				117.615,188.689 122.78,184.342 			"/>
			<path fill="#C9AA85" d="M112.004,145.438c-0.146,1.279-0.072,2.391,0,3.527c0.076,1.135,1.115,1.332,1.584,0.154
				c0.47-1.176,0.297-2.506,0.297-2.506s0.471,1.947,1.059,1.033c0.588-0.916,0.062-4.092,0.062-4.092l-2.51-0.109
				C112.496,143.447,112.15,144.156,112.004,145.438z"/>
			<path fill="#C9AA85" d="M142.868,145.438c0.146,1.279,0.074,2.391,0,3.527c-0.074,1.135-1.113,1.332-1.582,0.154
				c-0.471-1.176-0.297-2.506-0.297-2.506s-0.471,1.947-1.059,1.033c-0.588-0.916-0.062-4.092-0.062-4.092l2.508-0.109
				C142.378,143.447,142.724,144.156,142.868,145.438z"/>
			<rect x="125.2" y="116.289" fill="#8C8C8C" width="4.639" height="28.701"/>
			<path fill="#272421" d="M133.35,74.375C133.35,74.376,133.35,74.376,133.35,74.375c-10.703-3.61-18.846,2.015-20.846,4.737
				c-2.146,2.918-5.188,12.793-0.449,16.724c0,0,12.96-6.881,14.226-10.345c-0.13,3.137,0,5.95,0,5.95s4.004-3.39,6.825-7.689
				c2.909,1.696,7.487,9.307,8.118,15.643C144.76,94.96,147.056,77.33,133.35,74.375z"/>
			<path fill="#E76565" d="M123.776,103.771c0,0,1.561,1.396,3.83,1.39c2.188-0.004,3.873-1.408,3.873-1.408
				s-0.781,3.509-3.868,3.516C124.524,107.276,123.776,103.771,123.776,103.771z"/>
			<path fill="#C9AA85" d="M130.146,117.518c0,0-0.091,1.35-2.519,1.35s-2.519-1.35-2.519-1.35v-7.605h5.036L130.146,117.518
				L130.146,117.518z"/>
		</g>
	</g>
	<g>
		<circle fill="#FFFFFF" cx="47.41" cy="107.089" r="17.05"/>
		<rect x="37.156" y="100.089" fill="#E8E3E8" width="20.977" height="13.944"/>
		<rect x="37.156" y="100.089" fill="#DF1D48" width="20.977" height="5.79"/>
		<text transform="matrix(1 0 0 1 43.6572 111.8184)" font-family="'MyriadPro-Bold'" font-size="7.6954">31</text>
		<path fill="#DDDBDC" d="M40.074,101.058c0,0.306-0.248,0.554-0.553,0.554l0,0c-0.307,0-0.554-0.248-0.554-0.554v-1.926
			c0-0.306,0.247-0.554,0.554-0.554l0,0c0.305,0,0.553,0.248,0.553,0.554V101.058z"/>
		<path fill="#DDDBDC" d="M43.656,101.058c0,0.306-0.248,0.554-0.554,0.554l0,0c-0.306,0-0.554-0.248-0.554-0.554v-1.926
			c0-0.306,0.248-0.554,0.554-0.554l0,0c0.306,0,0.554,0.248,0.554,0.554V101.058z"/>
		<path fill="#DDDBDC" d="M46.884,101.058c0,0.306-0.249,0.554-0.554,0.554l0,0c-0.307,0-0.555-0.248-0.555-0.554v-1.926
			c0-0.306,0.249-0.554,0.555-0.554l0,0c0.305,0,0.554,0.248,0.554,0.554V101.058z"/>
		<path fill="#DDDBDC" d="M50.11,101.058c0,0.306-0.249,0.554-0.554,0.554l0,0c-0.307,0-0.555-0.248-0.555-0.554v-1.926
			c0-0.306,0.25-0.554,0.555-0.554l0,0c0.305,0,0.554,0.248,0.554,0.554V101.058z"/>
		<path fill="#DDDBDC" d="M53.447,101.058c0,0.306-0.248,0.554-0.554,0.554l0,0c-0.306,0-0.554-0.248-0.554-0.554v-1.926
			c0-0.306,0.248-0.554,0.554-0.554l0,0c0.306,0,0.554,0.248,0.554,0.554V101.058z"/>
		<path fill="#DDDBDC" d="M56.322,101.058c0,0.306-0.25,0.554-0.555,0.554l0,0c-0.307,0-0.555-0.248-0.555-0.554v-1.926
			c0-0.306,0.25-0.554,0.555-0.554l0,0c0.305,0,0.555,0.248,0.555,0.554V101.058z"/>
	</g>
</g>
</svg>
