<svg version="1.1" id="adjudicacion_ilustracion" xmlns="http://www.w3.org/2000/svg" xmlns:xlink="http://www.w3.org/1999/xlink" x="0px" y="0px"
	 width="330px" height="330px" viewBox="0 0 330 330" xml:space="preserve">
<g>
	<circle fill="#83C785" cx="117.097" cy="119.143" r="98.2"/>
	<g>
		<path fill="#71A571" d="M117.098,222.18c-27.522,0-53.396-10.719-72.857-30.18c-19.461-19.459-30.178-45.334-30.178-72.857
			c0-27.521,10.717-53.395,30.178-72.855c19.46-19.461,45.335-30.178,72.857-30.178c27.521,0,53.396,10.717,72.856,30.178
			c19.46,19.461,30.178,45.334,30.178,72.855c0,27.523-10.718,53.398-30.178,72.857C170.494,211.461,144.62,222.18,117.098,222.18z
			 M117.098,25.778c-24.939,0-48.386,9.711-66.02,27.346c-17.635,17.635-27.346,41.081-27.346,66.019
			c0,24.939,9.711,48.387,27.346,66.02c17.635,17.637,41.081,27.348,66.02,27.348c24.939,0,48.386-9.711,66.02-27.348
			c17.635-17.633,27.346-41.08,27.346-66.02c0-24.938-9.711-48.384-27.346-66.019C165.484,35.489,142.038,25.778,117.098,25.778z"/>
	</g>
	<g>
		<defs>
			<circle id="adjudicacion_i_1" cx="116.976" cy="119.022" r="93.541"/>
		</defs>
		<clipPath id="adjudicacion_i_2">
			<use xlink:href="#adjudicacion_i_1"  overflow="visible"/>
		</clipPath>
	</g>
</g>
<g>
	<defs>
		<circle id="adjudicacion_i_3" cx="118.078" cy="156.942" r="56.513"/>
	</defs>
	<clipPath id="adjudicacion_i_4">
		<use xlink:href="#adjudicacion_i_3"  overflow="visible"/>
	</clipPath>
	<g clip-path="url(#adjudicacion_i_4)">
		<polygon fill="#F1C9A5" points="112.148,226.11 114.18,254.258 117.952,254.258 118.533,226.11 		"/>
		<polygon fill="#F1C9A5" points="126.228,226.11 124.198,254.258 120.425,254.258 119.844,226.11 		"/>
		<g>
			<polygon fill="#A78759" points="111.429,205.757 112.148,226.11 126.948,226.11 128.196,205.896 			"/>
			<polygon fill="#0C2121" points="120.425,254.258 120.447,259.627 122.015,259.627 122.015,258.467 123.902,259.627 
				130.576,259.627 124.198,254.258 			"/>
			<polygon fill="#0C2121" points="118.078,254.258 118.056,259.627 116.488,259.627 116.488,258.467 114.602,259.627 
				107.928,259.627 114.305,254.258 			"/>
			<path fill="#F1C9A5" d="M91.129,184.86c-1.25-0.982-2.163-2.012-3.097-3.062c-0.932-1.05-0.203-2.133,1.238-1.523
				c1.439,0.606,2.458,1.914,2.458,1.914s-1.302-2.104,0.011-1.826c1.314,0.279,3.646,3.498,3.646,3.498l-2.082,2.297
				C93.303,186.157,92.381,185.844,91.129,184.86z"/>
			<path fill="#F1C9A5" d="M148.47,184.86c1.25-0.982,2.163-2.012,3.098-3.062c0.932-1.05,0.202-2.133-1.238-1.523
				c-1.439,0.606-2.459,1.914-2.459,1.914s1.303-2.104-0.01-1.826c-1.314,0.279-3.646,3.498-3.646,3.498l2.082,2.297
				C146.296,186.157,147.218,185.844,148.47,184.86z"/>
			<g>
				<path fill="#F1C9A5" d="M139.476,144.025c0.027,11.46-9.151,20.774-20.504,20.804c-11.347,0.028-20.571-9.243-20.599-20.703
					c-0.027-11.46,9.15-20.776,20.497-20.803C130.224,123.294,139.449,132.564,139.476,144.025z"/>
				<path fill="#5E5E5E" d="M117.143,169.053c-9.838-1.977-15.358-26.837-15.358-26.837s28.558-0.333,30.627-12.568
					c-0.147,0.867,4.276,14.206,4.312,16.138c0.162,9.021-8.925,22.978-13.879,23.354c19.506-1.483,18.951-21.662,18.926-32.376
					c-0.029-11.814-10.287-21.372-22.908-21.34c-12.621,0.03-22.397,9.634-22.805,21.453
					C94.759,174.589,117.143,169.053,117.143,169.053z M115.508,157.905"/>
				<path fill="#E76666" d="M114.821,154.793c0,0,1.926,1.723,4.728,1.715c2.701-0.005,4.781-1.738,4.781-1.738
					s-0.967,4.332-4.775,4.342C115.744,159.12,114.821,154.793,114.821,154.793z"/>
				<path fill="#534033" d="M114.222,144.995c0.001,0.977-0.477,1.771-1.073,1.773c-0.591,0-1.071-0.792-1.073-1.769
					c-0.002-0.977,0.473-1.771,1.064-1.771C113.736,143.227,114.219,144.018,114.222,144.995z"/>
				<path fill="#534033" d="M127.779,144.995c0.002,0.977-0.477,1.771-1.072,1.773c-0.59,0.002-1.072-0.792-1.074-1.769
					s0.475-1.769,1.066-1.771C127.294,143.227,127.777,144.018,127.779,144.995z"/>
				<path fill="#D3A884" d="M121.199,150.93c0,0-0.629-0.564-1.548-0.562c-0.886,0.002-1.567,0.57-1.567,0.57
					s0.315-1.42,1.564-1.424C120.896,149.51,121.199,150.93,121.199,150.93z"/>
				<circle fill="#F1C9A5" cx="104.267" cy="147.629" r="3.084"/>
				<circle fill="#F1C9A5" cx="135.492" cy="147.546" r="3.084"/>
				<path fill="#0E73BA" d="M130.355,172.86c0,0-0.078-0.078-0.117-0.118c-0.33-0.388-0.766-0.744-1.354-1.05
					c-4.32-2.242-16.805-2.565-19.493,1.168c-2.688,3.736-3.869,16.637-3.869,16.637l-10.435-6.029l-1.654,2.645l13.875,7.546
					l3.243-14.75l2.456,6.769l-1.563,20.555l16.718,0.182l-1.426-20.736l0.242-0.668l2.562-5.469L130.355,172.86z"/>
				<path fill="#0E73BA" d="M109.435,172.86c0,0,0.078-0.078,0.117-0.118c0.331-0.388,0.765-0.744,1.353-1.05
					c4.32-2.242,16.805-2.565,19.493,1.168c2.688,3.736,3.869,16.637,3.869,16.637l10.435-6.029l1.653,2.645l-13.875,7.546
					l-3.242-14.75l-2.457,6.769l1.564,20.555l-16.719,0.182l1.426-20.736l-0.241-0.668l-2.562-5.469L109.435,172.86z"/>
				<rect x="117.123" y="173.313" fill="#0E73BA" width="5.726" height="32.368"/>
				<polygon fill="#F1C9A5" points="122.848,174.215 119.986,178.908 117.151,174.229 117.123,162.795 122.82,162.782 				"/>
			</g>
		</g>
	</g>
</g>
<circle fill="#FFFFFF" cx="180.102" cy="118.353" r="22.122"/>
<circle fill="#FFFFFF" cx="58.057" cy="118.353" r="22.122"/>
<circle fill="#FFFFFF" cx="116.346" cy="61.063" r="22.122"/>
<path fill="none" stroke="#FFFFFF" stroke-width="2" stroke-linecap="round" stroke-linejoin="round" stroke-miterlimit="10" stroke-dasharray="3,6" d="
	M58.057,119.425c0,0,8.552-57.362,56.29-57.362s65.756,56.289,65.756,56.289"/>
<g>
	<path fill="#989898" d="M67.899,119.371c-3.923,8.312-5.203,8.312-5.962,8.312h-7.512c-2.631,0-4.643-1.544-5.133-3.939
		c-0.015-0.076-1.503-7.372-1.884-9.41c-0.183-0.998-0.66-1.668-2.368-1.668c-0.778,0-1.407-0.627-1.407-1.405
		c0-0.78,0.628-1.407,1.407-1.407c2.837,0,4.661,1.407,5.137,3.964c0.376,2.016,1.861,9.288,1.875,9.362
		c0.299,1.471,1.619,1.692,2.374,1.692h7.14c0.766-0.827,2.512-3.999,3.792-6.697c0.329-0.707,1.166-1.005,1.871-0.675
		C67.932,117.826,68.233,118.664,67.899,119.371L67.899,119.371z M53.485,128.624c-1.292,0-2.347,1.049-2.347,2.345
		c0,1.297,1.056,2.35,2.347,2.35c1.297,0,2.346-1.051,2.346-2.35C55.832,129.672,54.782,128.624,53.485,128.624L53.485,128.624z
		 M61.937,128.624c-1.296,0-2.346,1.049-2.346,2.345c0,1.297,1.047,2.35,2.346,2.35c1.292,0,2.347-1.051,2.347-2.35
		C64.284,129.672,63.229,128.624,61.937,128.624L61.937,128.624z"/>
</g>
<g>
	<circle fill="#FFCF72" stroke="#EAA155" stroke-width="0.9886" stroke-miterlimit="10" cx="108.541" cy="63.636" r="6.109"/>
	
		<text transform="matrix(0.9926 -0.1218 0.1218 0.9926 106.9048 66.7935)" fill="#EAA155" font-family="'SoberanaSans-Black'" font-size="7.1681">$</text>
</g>
<g>
	<circle fill="#FFCF72" stroke="#EAA155" stroke-width="1.2009" stroke-miterlimit="10" cx="125.658" cy="65.411" r="7.422"/>
	
		<text transform="matrix(0.9926 -0.1218 0.1218 0.9926 123.6724 69.2466)" fill="#EAA155" font-family="'SoberanaSans-Black'" font-size="8.7078">$</text>
</g>
<g>
	<circle fill="#FFCF72" stroke="#EAA155" stroke-width="0.8297" stroke-miterlimit="10" cx="116.977" cy="50.572" r="5.128"/>
	
		<text transform="matrix(0.9926 -0.1218 0.1218 0.9926 115.6035 53.2212)" fill="#EAA155" font-family="'SoberanaSans-Black'" font-size="6.0164">$</text>
</g>
<path fill="#8CC148" d="M57.395,120.97c0.091,0.073,0.211,0.11,0.325,0.11c0.116,0,0.23-0.037,0.326-0.11
	c0.093-0.078,2.656-2.576,4.051-4.651c0.107-0.161,0.117-0.368,0.023-0.536c-0.084-0.175-0.264-0.279-0.458-0.279h-2.09
	c0,0-0.203-4.029-0.333-4.212c-0.197-0.279-0.992-0.467-1.517-0.467c-0.526,0-1.343,0.188-1.535,0.467
	c-0.133,0.183-0.306,4.212-0.306,4.212h-2.118c-0.193,0-0.371,0.106-0.463,0.279c-0.091,0.169-0.078,0.376,0.027,0.536
	C54.722,118.399,57.303,120.893,57.395,120.97L57.395,120.97z"/>
<g>
	<polygon fill="#F7D196" points="168.453,113.034 178.301,109.912 191.752,114.475 182.024,118.679 	"/>
	<polygon fill="#F2C891" points="168.453,113.034 168.453,124.684 182.024,131.77 182.024,118.679 	"/>
	<polygon fill="#CE954F" points="191.752,114.475 191.752,126.245 182.024,131.77 182.024,118.679 	"/>
	<polygon fill="#F4DBB8" points="172.856,111.608 186.266,116.847 186.264,119.368 188.397,118.243 188.397,115.926 
		174.958,110.954 	"/>
</g>
</svg>
