<?xml version="1.0" standalone="no"?>
<!DOCTYPE svg PUBLIC "-//W3C//DTD SVG 1.1//EN" "http://www.w3.org/Graphics/SVG/1.1/DTD/svg11.dtd" >
<svg xmlns="http://www.w3.org/2000/svg">
<metadata></metadata>
<defs>
<font id="stilulight" horiz-adv-x="1132" >
<font-face units-per-em="2048" ascent="1638" descent="-410" />
<missing-glyph horiz-adv-x="512" />
<glyph unicode="&#xfb01;" horiz-adv-x="1130" d="M98 1028v98h138v66q0 172 80 250t239 78q43 0 59 -2l-2 -101h-71q-104 0 -149 -58.5t-42 -180.5v-52h586v-1126h-115v1028h-471v-1028h-114v1028h-138z" />
<glyph unicode="&#xfb02;" horiz-adv-x="1101" d="M98 1028v98h138v64q0 174 80 252t239 78q43 0 59 -2l-2 -101h-71q-104 0 -149 -58.5t-42 -180.5v-52h201v-98h-201v-1028h-114v1028h-138zM803 104v1430h115v-1419q0 -39 28 -39q17 0 27 4l28 -98q-33 -13 -67 -13q-65 0 -98 27.5t-33 107.5z" />
<glyph horiz-adv-x="0" />
<glyph unicode="&#xd;" horiz-adv-x="653" />
<glyph unicode=" "  horiz-adv-x="512" />
<glyph unicode="&#x09;" horiz-adv-x="512" />
<glyph unicode="&#xa0;" horiz-adv-x="512" />
<glyph unicode="!" horiz-adv-x="585" d="M184 94q0 44 32.5 75.5t76.5 31.5q43 0 74.5 -31.5t31.5 -75.5t-31.5 -76t-74.5 -32q-44 0 -76.5 32t-32.5 76zM223 1634h135l-4 -1231h-127z" />
<glyph unicode="&#x22;" horiz-adv-x="503" d="M74 983v553h108v-553h-108zM324 983v553h106v-553h-106z" />
<glyph unicode="#" horiz-adv-x="1439" d="M131 281l35 131h252l94 354h-252l35 129h252l119 440h118l-116 -440h346l119 440h118l-116 -440h231l-35 -129h-231l-94 -354h231l-37 -131h-231l-117 -435h-119l117 435h-348l-117 -435h-119l117 435h-252zM539 412h348l92 354h-346z" />
<glyph unicode="$" horiz-adv-x="1228" d="M63 244l76 82q150 -228 420 -244v629q-45 16 -78 28.5t-80.5 35t-81.5 45t-71.5 56.5t-60.5 70.5t-38.5 86t-15.5 104.5q0 72 27.5 137.5t79 118t134 85t185.5 35.5v129h123v-137q108 -19 192 -76.5t136 -136.5l-86 -63q-34 57 -97.5 101.5t-144.5 62.5v-598 q47 -17 77.5 -28.5t77 -34t77 -44t65.5 -55.5t55.5 -72t34.5 -89.5t14 -111.5q0 -146 -107 -255t-294 -130v-182h-123v180q-102 5 -188.5 33.5t-146 72t-96.5 82.5t-65 83zM254 1139q0 -60 23.5 -108t70.5 -83.5t94 -59t117 -50.5v567q-139 -6 -222 -79.5t-83 -186.5z M682 86q133 21 206 99.5t73 172.5q0 118 -67 185.5t-212 122.5v-580z" />
<glyph unicode="%" horiz-adv-x="2019" d="M86 1151q0 172 116.5 292t284.5 120q163 0 280.5 -120.5t117.5 -291.5q0 -168 -118 -290t-280 -122q-167 0 -284 121.5t-117 290.5zM205 1149q0 -114 82 -201.5t200 -87.5q117 0 198 87.5t81 201.5q0 117 -81 205t-198 88q-119 0 -200.5 -88t-81.5 -205zM518 -18 l823 1546h127l-821 -1546h-129zM1135 377q0 173 116 292t285 119q164 0 280.5 -119.5t116.5 -291.5q0 -166 -117.5 -288t-279.5 -122q-167 0 -284 121.5t-117 288.5zM1253 377q0 -115 82 -202t201 -87q117 0 198 87t81 202q0 117 -81 205t-198 88q-119 0 -201 -88t-82 -205z " />
<glyph unicode="&#x26;" horiz-adv-x="1544" d="M164 408q0 146 87 259.5t275 202.5q-82 98 -125 177t-43 153q0 146 81.5 226.5t205.5 80.5q141 0 231.5 -85.5t90.5 -225.5q0 -249 -246 -369l340 -387q41 144 51 416h-65v74h331v-74h-145q-7 -329 -80 -520l254 -291l-80 -74l-227 254q-153 -258 -506 -258 q-119 0 -215 49.5t-155.5 151t-59.5 240.5zM285 408q0 -152 90.5 -242t220.5 -90q157 0 259 62t161 181l-408 459q-180 -82 -251.5 -170.5t-71.5 -199.5zM477 1200q0 -55 40 -121t120 -157q112 56 161.5 122.5t49.5 153.5q0 85 -58.5 144t-144.5 59q-85 0 -126.5 -59 t-41.5 -142z" />
<glyph unicode="'" horiz-adv-x="526" d="M209 983v553h106v-553h-106z" />
<glyph unicode="(" horiz-adv-x="776" d="M139 627q0 292 123 582.5t328 498.5h117q-195 -240 -319 -522.5t-124 -558.5q0 -309 121.5 -617.5t321.5 -521.5h-117q-205 186 -328 491t-123 648z" />
<glyph unicode=")" horiz-adv-x="768" d="M61 -512q200 213 320.5 521.5t120.5 617.5q0 276 -123 558.5t-318 522.5h117q205 -208 328 -498.5t123 -582.5q0 -343 -123 -648t-328 -491h-117z" />
<glyph unicode="*" horiz-adv-x="989" d="M82 1212l141 107l246 -248l-55 412h166l-60 -412l244 240l143 -99l-354 -208l305 -277l-139 -98l-221 340l-228 -340l-139 98l305 277z" />
<glyph unicode="+" horiz-adv-x="1216" d="M41 502v119h508v505h119v-505h508v-119h-508v-504h-119v504h-508z" />
<glyph unicode="," horiz-adv-x="466" d="M94 117q5 44 35 70t86 26q65 0 111 -56t47 -149q3 -115 -62 -206.5t-149 -118.5l-49 47q34 9 65.5 40t48 67.5t21 73.5t-14.5 58z" />
<glyph unicode="-" horiz-adv-x="929" d="M131 494v149h668v-149h-668z" />
<glyph unicode="." horiz-adv-x="466" d="M129 96q0 44 31.5 75.5t75.5 31.5t76 -31.5t32 -75.5q0 -45 -31.5 -76.5t-76.5 -31.5q-44 0 -75.5 31t-31.5 77z" />
<glyph unicode="/" horiz-adv-x="897" d="M23 -369l729 1968h122l-729 -1968h-122z" />
<glyph unicode="0" horiz-adv-x="1239" d="M170 737q0 764 430 764h39q428 0 428 -764q0 -146 -13.5 -262t-44 -213t-79.5 -161t-122 -99t-169 -35h-39q-118 0 -202.5 53t-133.5 156t-71.5 240.5t-22.5 320.5zM293 733q4 -116 11.5 -201.5t22.5 -163t39 -129t59 -90t83.5 -56t112.5 -17.5q76 0 131.5 26.5 t92.5 76.5t59.5 132.5t31.5 183t10 238.5q0 53 -0.5 90.5t-4 95t-9.5 99.5t-18 94t-28 89t-41 75t-56 62t-74 39t-94 16q-51 -1 -94 -16t-74.5 -38.5t-56.5 -61t-41.5 -75t-28.5 -89t-18 -94t-9.5 -99t-4.5 -96t-1 -91.5z" />
<glyph unicode="1" horiz-adv-x="657" d="M182 1374l58 111h200v-1485h-123v1374h-135z" />
<glyph unicode="2" horiz-adv-x="1134" d="M131 0q0 47 6.5 89t16.5 76.5t30 68.5t38.5 60t51 56t59 51.5t71.5 52t78 52t89 56.5q35 22 54 34q57 37 95.5 64t88 71t78.5 84.5t50 96t21 114.5q0 168 -89 262t-244 94q-46 0 -93.5 -12.5t-97 -39.5t-90 -77t-61.5 -116l-97 43q22 99 94 172t162 107t183 34 q97 0 179.5 -29.5t144.5 -86.5t97 -147t35 -204q0 -69 -17 -130t-45.5 -109.5t-75.5 -96t-95.5 -85t-116.5 -81.5q-39 -26 -108 -69t-109.5 -69t-93 -64.5t-81 -69t-49 -68.5t-20.5 -75h795v-111z" />
<glyph unicode="3" horiz-adv-x="1026" d="M86 156l55 110q54 -83 140 -134.5t190 -51.5q129 0 215 79.5t86 211.5q0 156 -123.5 242.5t-326.5 88.5v117q47 3 93 12.5t99 31t92 52t65.5 81.5t26.5 114q0 114 -79.5 194t-233.5 80q-76 0 -154 -18v117q83 14 154 14q112 0 198 -33.5t135 -89.5t73 -121t24 -137 q0 -71 -22 -132.5t-59 -104t-78.5 -71.5t-86.5 -44q131 -21 228.5 -126t97.5 -269q0 -80 -26 -150.5t-77 -126.5t-133.5 -88.5t-187.5 -32.5q-245 0 -385 185z" />
<glyph unicode="4" horiz-adv-x="1089" d="M66 428v113l682 944h86v-948h170v-111h-170v-426h-123v428h-645zM190 537h521v712z" />
<glyph unicode="5" horiz-adv-x="1040" d="M111 160l63 94q45 -77 128 -123.5t183 -46.5q146 0 223.5 95t77.5 255q0 156 -76.5 262.5t-201.5 106.5q-33 0 -60.5 -3.5t-55 -13t-38.5 -13.5t-39 -18.5t-30 -15.5l-78 76l78 670h538v-111h-440l-53 -491q130 41 237 25t183.5 -75t118.5 -163t42 -238q0 -90 -26.5 -172 t-77 -147.5t-133 -104.5t-185.5 -39q-232 0 -378 191z" />
<glyph unicode="6" horiz-adv-x="1173" d="M166 651q0 98 6 179.5t24 172t48.5 161.5t81.5 137.5t120.5 110.5t169 70.5t222.5 26.5q32 0 106 -4v-110q-13 0 -38.5 1t-37.5 1q-158 0 -267.5 -40.5t-177 -125.5t-99.5 -203.5t-37 -286.5q63 59 153.5 96t173.5 37q84 0 156.5 -23.5t135.5 -74t99.5 -143t36.5 -217.5 q0 -114 -37.5 -202.5t-100 -140t-137.5 -77t-157 -25.5q-76 0 -140.5 21.5t-121.5 71.5t-96.5 127t-62.5 194t-23 266zM287 610q5 -164 40.5 -279.5t110.5 -182t187 -66.5q53 0 103.5 18.5t95 56t71.5 105t27 154.5q0 79 -13 135t-47 103t-98.5 73t-161.5 31 q-111 0 -190.5 -44.5t-124.5 -103.5z" />
<glyph unicode="7" horiz-adv-x="870" d="M25 1374v111h825l-594 -1485h-135l549 1374h-645z" />
<glyph unicode="8" d="M133 395q0 244 219 389q-77 57 -124.5 137.5t-47.5 213.5q0 71 26.5 139t74.5 122.5t122.5 88t163.5 33.5q87 0 161.5 -33.5t123.5 -87.5t76.5 -122.5t27.5 -139.5q0 -72 -14.5 -130t-42.5 -100t-54 -68.5t-63 -54.5q219 -157 219 -387q0 -181 -123.5 -303.5 t-310.5 -122.5q-188 0 -311 122.5t-123 303.5zM256 395q0 -131 90.5 -223t220.5 -92q131 0 221.5 92t90.5 223t-85.5 223.5t-226.5 92.5t-226 -92.5t-85 -223.5zM303 1135q0 -134 70.5 -213.5t191.5 -79.5q122 0 196.5 80t74.5 213q0 113 -76.5 194.5t-194.5 81.5 t-190 -80.5t-72 -195.5z" />
<glyph unicode="9" horiz-adv-x="1173" d="M127 1063q0 114 37.5 202.5t100 140t137.5 77.5t157 26q76 0 141 -21.5t122.5 -71.5t97.5 -127t63 -194t23 -266q0 -98 -6 -180t-24.5 -172.5t-48.5 -161.5t-81.5 -137.5t-120.5 -110.5t-168.5 -70t-222.5 -26q-31 0 -109 4v111q27 -2 78 -2q157 0 266.5 40t177 124.5 t99.5 203.5t37 287q-63 -60 -157 -96.5t-191 -36.5q-60 0 -115.5 14t-110 47.5t-94 84.5t-64 131t-24.5 180zM250 1063q0 -78 12.5 -134t44 -103t91.5 -72.5t149 -30.5q122 0 207.5 42t130.5 99q-5 166 -40.5 282t-110.5 183.5t-187 67.5q-54 0 -104.5 -18.5t-95 -56.5 t-71 -105t-26.5 -154z" />
<glyph unicode=":" horiz-adv-x="466" d="M129 96q0 44 31.5 75.5t75.5 31.5t76 -31.5t32 -75.5q0 -45 -31.5 -76.5t-76.5 -31.5q-44 0 -75.5 31t-31.5 77zM129 1022q0 44 31.5 75t75.5 31t76 -31t32 -75t-32 -76.5t-76 -32.5t-75.5 32.5t-31.5 76.5z" />
<glyph unicode=";" horiz-adv-x="466" d="M94 117q5 44 35 70t86 26q65 0 111 -56t47 -149q3 -115 -62 -206.5t-149 -118.5l-49 47q34 9 65.5 40t48 67.5t21 73.5t-14.5 58zM129 1022q0 44 31.5 75t75.5 31t76 -31t32 -75t-32 -76.5t-76 -32.5t-75.5 32.5t-31.5 76.5z" />
<glyph unicode="&#x3c;" horiz-adv-x="1228" d="M39 559l1055 567v-137l-809 -430l813 -430v-137z" />
<glyph unicode="=" horiz-adv-x="1216" d="M41 297v121h1135v-121h-1135zM41 698v121h1135v-121h-1135z" />
<glyph unicode="&#x3e;" horiz-adv-x="1228" d="M113 -8v137l811 430l-807 430v137l1054 -567z" />
<glyph unicode="?" horiz-adv-x="823" d="M25 1516q76 63 159 93.5t193 30.5q81 0 154 -25t133.5 -74.5t96.5 -134.5t36 -194q0 -61 -11.5 -112.5t-35.5 -91t-48 -68t-62.5 -54.5t-64.5 -40.5t-67 -34.5q-24 -12 -64 -28t-62 -25t-49 -27t-39 -37.5t-19 -52t-1 -74.5l19 -155h-121q-17 105 -19.5 184.5t32.5 143 t116 108.5q36 20 88.5 43t88.5 38t76.5 41.5t64.5 56.5t40.5 79.5t16.5 114.5q0 146 -85.5 228.5t-219.5 82.5q-163 0 -289 -102zM150 94q0 44 32 75.5t76 31.5q43 0 75 -31.5t32 -75.5t-32 -76t-75 -32q-44 0 -76 32t-32 76z" />
<glyph unicode="@" horiz-adv-x="1767" d="M131 600q0 150 44 293t123.5 257.5t183 201.5t228 134.5t253.5 47.5q133 0 244 -37.5t187 -100t129.5 -146t78 -174t24.5 -185.5q0 -135 -45 -249t-138.5 -187.5t-219.5 -73.5q-175 0 -217 113q-60 -33 -130 -54.5t-120 -21.5q-44 0 -82 12t-74 40t-57 81.5t-21 128.5 q0 68 31 136.5t80 122.5t106 97t112.5 66t96.5 22q64 0 103.5 -14t64.5 -61q41 -2 74 -37t33 -86q0 -69 -66 -174q-72 -111 -72 -162q0 -36 33 -62t111 -26q80 0 140 50.5t89 128.5t29 169q0 78 -15 151t-52 146t-94 126.5t-147.5 86.5t-205.5 33q-157 0 -293.5 -72 t-226.5 -188.5t-141.5 -262t-51.5 -295.5q0 -100 26.5 -183t72.5 -140.5t108 -98t133.5 -59t149.5 -18.5q197 0 362 104l51 -100q-216 -127 -434 -127q-98 0 -186.5 25.5t-164 78.5t-130.5 128.5t-86 181.5t-31 233zM649 655q0 -51 31.5 -78.5t85.5 -27.5q91 0 186 76 q75 69 116.5 147.5t41.5 149.5q0 40 -22 63t-68 23q-91 0 -194 -79t-152 -179q-25 -58 -25 -95z" />
<glyph unicode="A" horiz-adv-x="1286" d="M10 0l559 1485h150l557 -1485h-131l-215 588h-572l-217 -588h-131zM397 696h492l-244 660h-4z" />
<glyph unicode="B" horiz-adv-x="1175" d="M225 0v1485h328q207 0 315.5 -106.5t108.5 -297.5q0 -199 -131 -295q99 -43 158 -132t59 -228q0 -200 -115 -313t-366 -113h-357zM346 111h221q373 0 373 301q0 282 -338 282h-256v-583zM346 807h213h4q135 1 213 73q80 74 80 199q0 60 -17 111t-52.5 93.5t-99 66.5 t-148.5 24h-193v-567z" />
<glyph unicode="C" horiz-adv-x="1425" d="M160 741q0 129 24.5 244.5t75 213t123 168.5t174.5 111t223 40q78 0 152 -15t151 -49.5t137.5 -102.5t90.5 -163l-101 -43q-37 122 -156 191t-276 69q-104 0 -188.5 -38.5t-140.5 -103t-94.5 -151.5t-55 -180t-16.5 -193q0 -102 14.5 -192.5t51 -177.5t91.5 -149 t141.5 -100t196.5 -38q104 0 188 23t148.5 76t93.5 132l111 -28q-120 -316 -539 -316q-152 0 -272 60.5t-195 166.5t-114 244.5t-39 300.5z" />
<glyph unicode="D" horiz-adv-x="1443" d="M221 0v1485h447q123 0 223.5 -37t170 -102.5t117 -159t69.5 -204t22 -239.5q0 -166 -33.5 -298.5t-103.5 -233.5t-188 -156t-277 -55h-447zM344 127h301q256 0 375 151t119 461q0 101 -13.5 187t-48 168t-89 138.5t-142 91t-201.5 34.5h-301v-1231z" />
<glyph unicode="E" horiz-adv-x="1028" d="M225 0v1485h686v-109h-567v-575h457v-109h-457v-583h567v-109h-686z" />
<glyph unicode="F" horiz-adv-x="997" d="M225 0v1485h658v-109h-537v-518h426v-108h-426v-750h-121z" />
<glyph unicode="G" horiz-adv-x="1536" d="M154 741q0 128 24 243.5t74.5 213t123 169t174.5 111.5t224 40q77 0 150.5 -15t150.5 -49.5t137.5 -102.5t90.5 -163l-101 -43q-37 122 -156 191t-276 69q-104 0 -188.5 -39t-140.5 -103.5t-94 -151.5t-54.5 -180t-16.5 -192q0 -102 14.5 -192.5t50.5 -177.5t91 -149 t141.5 -100t196.5 -38q156 0 273.5 63.5t158.5 182.5v237h-403v111h522v-676h-86l-18 139q-155 -170 -443 -170q-153 0 -273 60.5t-194.5 166.5t-113.5 244.5t-39 300.5z" />
<glyph unicode="H" horiz-adv-x="1398" d="M225 0v1485h121v-651h707v651h121v-1485h-121v725l-707 2v-727h-121z" />
<glyph unicode="I" horiz-adv-x="571" d="M225 0v1485h121v-1485h-121z" />
<glyph unicode="J" horiz-adv-x="962" d="M20 176l78 70q38 -77 109.5 -120.5t167.5 -43.5q134 0 187.5 79.5t53.5 260.5v1063h121v-1075q0 -211 -86 -324t-276 -113q-124 0 -219 56.5t-136 146.5z" />
<glyph unicode="K" horiz-adv-x="1185" d="M225 0v1485h121v-846l655 844h138l-473 -615l512 -868h-136l-456 766l-240 -311v-455h-121z" />
<glyph unicode="L" horiz-adv-x="925" d="M225 0v1485h121v-1376h535v-109h-656z" />
<glyph unicode="M" horiz-adv-x="1611" d="M201 0v1485h198l381 -1356l420 1356h189v-1485h-123v1284l-414 -1284h-145l-385 1286v-1286h-121z" />
<glyph unicode="N" horiz-adv-x="1296" d="M201 0v1485h184l588 -1288v1288h123v-1485h-166l-608 1346v-1346h-121z" />
<glyph unicode="O" horiz-adv-x="1552" d="M174 743q0 129 22 243t69.5 212t117 169t170 111t223.5 40t223.5 -40t170 -111t117 -169t69.5 -212t22 -243q0 -131 -22 -245.5t-69.5 -212.5t-117 -167.5t-170 -109t-223.5 -39.5t-223.5 39.5t-170 109t-117 167.5t-69.5 212.5t-22 245.5zM301 739q0 -85 8.5 -160.5 t28.5 -151.5t56.5 -136t87 -107t126 -72.5t168.5 -25.5q475 0 475 653q0 103 -11.5 192t-44 178t-84 151.5t-137 101.5t-198.5 39q-111 0 -196.5 -39t-137.5 -101.5t-84.5 -151.5t-44.5 -178t-12 -192z" />
<glyph unicode="P" horiz-adv-x="1196" d="M225 0v1485h332q252 0 366.5 -107t114.5 -338q0 -230 -159.5 -328.5t-532.5 -101.5v-610h-121zM346 723q172 2 281.5 18.5t175 55.5t90.5 96t25 145q0 82 -17.5 141t-59 104.5t-116 68t-182.5 22.5h-197v-651z" />
<glyph unicode="Q" horiz-adv-x="1552" d="M174 743q0 129 22 243t69.5 212t117 169t170 111t223.5 40t223.5 -40t170 -111t117 -169t69.5 -212t22 -243q0 -154 -31 -284.5t-93.5 -235t-164.5 -170t-235 -80.5q35 -48 87.5 -88.5t103 -64t96.5 -39t75 -20.5t31 -1l-35 -92q-141 0 -283.5 86t-226.5 219 q-134 14 -236.5 79t-165.5 169.5t-94.5 236t-31.5 285.5zM301 739q0 -85 8.5 -160.5t28.5 -151.5t56.5 -136t87 -107t126 -72.5t168.5 -25.5q475 0 475 653q0 103 -11.5 192t-44 178t-84 151.5t-137 101.5t-198.5 39q-111 0 -196.5 -39t-137.5 -101.5t-84.5 -151.5 t-44.5 -178t-12 -192z" />
<glyph unicode="R" horiz-adv-x="1196" d="M225 0v1485h389q424 0 424 -426q0 -179 -84.5 -281.5t-269.5 -134.5q27 -27 58.5 -70t56 -81.5t63.5 -109.5t61 -112.5t70 -135t70 -134.5h-127q-179 326 -214 385q-92 152 -166 203q-45 31 -101 41h-109v-629h-121zM346 745h139q234 0 335.5 72t101.5 242 q0 315 -322 315h-254v-629z" />
<glyph unicode="S" horiz-adv-x="1191" d="M61 244l76 82q162 -246 465 -246q88 0 158.5 25t113 66t65 89t22.5 98q0 56 -17 100.5t-44.5 77t-77 62t-99.5 50.5t-127 48q-44 15 -60.5 21t-64 24.5t-71 31t-66 36.5t-65.5 45t-53.5 53.5t-46 65t-27 75t-11.5 89.5q0 74 28.5 140.5t82.5 119.5t140 84.5t193 31.5 q148 0 260.5 -62.5t176.5 -164.5l-92 -59q-43 75 -134.5 126.5t-210.5 51.5q-145 0 -234 -74t-89 -192q0 -40 12 -75t28.5 -60.5t50 -51.5t58 -41.5t72 -36.5t74 -31t80.5 -30q145 -52 179 -67q189 -85 246 -227q29 -71 29 -159q0 -77 -32 -147t-91.5 -123.5t-151.5 -85 t-204 -31.5q-91 0 -172 18.5t-137 46t-104 66.5t-76 71.5t-52 68.5z" />
<glyph unicode="T" horiz-adv-x="1114" d="M57 1376v109h1000v-109h-439v-1376h-120v1376h-441z" />
<glyph unicode="U" horiz-adv-x="1406" d="M225 627v858h121v-858q0 -64 3 -114t12 -109t25 -103.5t44 -88t66.5 -71t94.5 -44.5t126 -17q72 0 129.5 18t95.5 45.5t65.5 72.5t42.5 87.5t23 102t10 104.5t2 106v869h121v-869q0 -165 -24.5 -281.5t-80.5 -200.5t-151 -124.5t-233 -40.5q-260 0 -376 157t-116 501z " />
<glyph unicode="V" horiz-adv-x="1290" d="M10 1485h131l502 -1356l506 1356h131l-559 -1485h-150z" />
<glyph unicode="W" horiz-adv-x="1873" d="M29 1485h131l401 -1340l309 1340h123l307 -1340l402 1340h131l-457 -1485h-149l-295 1274l-297 -1274h-150z" />
<glyph unicode="X" horiz-adv-x="1286" d="M59 0l510 756l-510 729h142l442 -639l442 639h142l-506 -729l506 -756h-142l-442 664l-442 -664h-142z" />
<glyph unicode="Y" horiz-adv-x="1249" d="M41 1485h141l443 -703l442 703h141l-522 -813v-672h-123v674z" />
<glyph unicode="Z" horiz-adv-x="1257" d="M109 0l847 1376h-768v109h965l-842 -1376h838v-109h-1040z" />
<glyph unicode="[" horiz-adv-x="727" d="M225 -514v2052h412v-106h-289v-1840h289v-106h-412z" />
<glyph unicode="\" horiz-adv-x="919" d="M23 1599h145l729 -1968h-145z" />
<glyph unicode="]" horiz-adv-x="727" d="M90 -403h289v1835h-289v106l414 -2v-2050l-414 2v109z" />
<glyph unicode="^" horiz-adv-x="665" d="M20 877l246 573h133l246 -573h-98l-215 501l-213 -501h-99z" />
<glyph unicode="_" horiz-adv-x="1024" d="M0 -41h1024v-121h-1024v121z" />
<glyph unicode="`" horiz-adv-x="208" d="M-29 1536l127 -23l123 -272l-98 23z" />
<glyph unicode="a" d="M102 281q0 128 68.5 213t232 142t439.5 85v70q0 128 -76.5 193t-192.5 65q-88 0 -181.5 -26t-158.5 -58l-47 94q67 41 178 70.5t211 29.5q78 0 142.5 -17.5t119.5 -55.5t86 -107.5t31 -165.5v-813h-100l-14 137q-164 -168 -414 -168q-158 0 -241 88.5t-83 223.5zM217 281 q0 -111 59.5 -158t190.5 -47q89 0 190 47.5t183 134.5l2 356q-108 -15 -184 -28t-152 -32.5t-125 -43.5t-88.5 -56t-57.5 -75t-18 -98z" />
<glyph unicode="b" horiz-adv-x="1181" d="M195 0v1536h110v-565q31 74 121 131t227 57q187 0 288 -164t101 -448q0 -272 -109 -424t-339 -152q-93 0 -167.5 49.5t-113.5 112.5l-20 -133h-98zM307 428q0 -48 15 -121q20 -88 104 -149.5t186 -61.5q83 0 145.5 36t99 100t54 143t17.5 172q0 104 -17.5 190.5 t-54 155.5t-98.5 108t-144 39q-91 0 -171.5 -53t-118.5 -153q-17 -46 -17 -109v-297z" />
<glyph unicode="c" horiz-adv-x="1116" d="M137 567q0 273 142 433.5t360 160.5q253 0 373 -219l-88 -59q-18 33 -38 58t-53.5 53t-84 43.5t-113.5 15.5q-49 0 -98.5 -14t-101.5 -49t-92 -88.5t-65.5 -140t-25.5 -194.5q0 -114 24 -202t62 -141t90 -87t102 -46.5t105 -12.5q213 0 311 155l84 -69 q-27 -36 -47.5 -59.5t-56.5 -51.5t-76 -44.5t-100 -28t-134 -11.5q-228 0 -353.5 161.5t-125.5 436.5z" />
<glyph unicode="d" horiz-adv-x="1181" d="M139 547q0 284 101 448t290 164q137 0 226.5 -57t120.5 -131v565h110v-1536h-98l-21 119q-43 -59 -117 -103.5t-163 -44.5q-230 0 -339.5 152t-109.5 424zM254 547q0 -76 10.5 -142t34.5 -123.5t60 -98t89.5 -64t120.5 -23.5q103 0 187.5 61.5t103.5 149.5q14 68 14 121 v297q0 66 -16 109q-38 100 -118.5 153t-172.5 53q-83 0 -144.5 -37.5t-97.5 -106t-53.5 -155.5t-17.5 -194z" />
<glyph unicode="e" horiz-adv-x="1169" d="M131 573q0 129 26.5 230.5t71 167t107.5 109t131.5 61.5t146.5 18q94 0 171 -27t138 -84.5t96 -156t36 -232.5l2 -75h-811v-21q0 -231 95.5 -358t283.5 -127q208 0 290 186l101 -49q-37 -75 -84 -126.5t-125.5 -85.5t-181.5 -34q-236 0 -365 159.5t-129 444.5zM254 692 h688q-16 361 -332 361q-311 0 -356 -361z" />
<glyph unicode="f" horiz-adv-x="684" d="M98 1028v98h138v64q0 174 80 252t239 78q43 0 59 -2l-2 -101h-71q-104 0 -149 -59q-42 -54 -42 -165v-15v-52h201v-98h-201v-1028h-114v1028h-138z" />
<glyph unicode="g" horiz-adv-x="1181" d="M141 580q0 132 26.5 236t80 180.5t140.5 117.5t204 41q100 0 180 -53t117 -117l14 141h98v-1177q0 -106 -32.5 -185t-91 -125.5t-131.5 -69t-160 -22.5q-90 0 -156.5 25.5t-130.5 79.5l78 80q80 -76 215 -76q141 0 218 74.5t77 222.5v178q-35 -70 -124.5 -116t-193.5 -48 h-3q-211 0 -318 162q-107 163 -107 451zM256 580q0 -109 19 -199t56.5 -158.5t100.5 -106.5t146 -38q86 0 167.5 55.5t120.5 159.5q19 43 19 108v297q0 49 -15 121q-22 93 -108.5 156t-188.5 63q-83 0 -145.5 -35t-99.5 -98.5t-54.5 -144.5t-17.5 -180z" />
<glyph unicode="h" horiz-adv-x="1208" d="M201 0v1536h114v-530q163 153 357 153q185 0 268.5 -108.5t83.5 -335.5v-715h-115v739q0 68 -10 118.5t-36.5 97t-80 71.5t-133.5 25q-180 0 -334 -166v-885h-114z" />
<glyph unicode="i" horiz-adv-x="538" d="M201 1421q0 29 21 50.5t50 21.5q30 0 51 -21t21 -51q0 -29 -21 -50t-51 -21q-29 0 -50 21t-21 50zM215 0v1126h115v-1126h-115z" />
<glyph unicode="j" horiz-adv-x="540" d="M76 -268q38 1 62 9t42.5 27t27.5 57.5t13 92.5t4 139v1069h115v-1058q0 -93 -4.5 -157t-16 -116t-30 -83t-49 -51.5t-69.5 -28.5t-95 -9v109zM203 1421q0 29 21 50.5t50 21.5q30 0 51 -21t21 -51q0 -29 -21 -50t-51 -21q-29 0 -50 21t-21 50z" />
<glyph unicode="k" horiz-adv-x="1034" d="M201 0v1536h114v-981l428 571h152l-317 -413l426 -713h-130l-372 614l-187 -243v-371h-114z" />
<glyph unicode="l" horiz-adv-x="499" d="M201 102v1432h114v-1419q0 -41 29 -41q7 0 27 4l28 -96q-33 -13 -67 -13q-65 0 -98 27.5t-33 105.5z" />
<glyph unicode="m" horiz-adv-x="1896" d="M195 0v1126h114v-118q161 151 357 151q122 0 197 -44.5t110 -137.5q179 182 389 182q184 0 267 -108t83 -336v-715h-115v741q0 53 -5.5 94.5t-22.5 83.5t-44.5 69.5t-74.5 45t-111 17.5q-183 0 -340 -170q13 -80 13 -166v-715h-111v741q0 53 -5.5 94.5t-22.5 83.5 t-44.5 69.5t-74.5 45t-111 17.5q-188 0 -334 -158v-893h-114z" />
<glyph unicode="n" horiz-adv-x="1196" d="M195 0v1126h114v-118q161 151 357 151q184 0 267 -108t83 -336v-715h-115v741q0 53 -5.5 94.5t-22.5 83.5t-44.5 69.5t-74.5 45t-111 17.5q-180 0 -334 -162v-889h-114z" />
<glyph unicode="o" horiz-adv-x="1249" d="M139 559q0 273 127 436.5t344 163.5q240 0 370 -163.5t130 -436.5q0 -165 -56 -297t-169.5 -212.5t-268.5 -80.5q-149 0 -259.5 82t-164 214t-53.5 294zM262 559q0 -225 96 -353t258 -128q170 0 270.5 128.5t100.5 352.5q0 251 -98.5 371.5t-278.5 120.5 q-162 0 -255 -122.5t-93 -369.5z" />
<glyph unicode="p" horiz-adv-x="1187" d="M197 -410v1536h102l14 -135q39 63 118 113.5t179 50.5q114 0 198.5 -41t137 -117.5t78 -180.5t25.5 -236q0 -287 -106 -449t-318 -162q-114 0 -187 34.5t-127 96.5v-510h-114zM309 387q0 -53 19 -108q39 -102 118.5 -149.5t176.5 -47.5q109 0 180 66.5t101 174.5t30 257 q0 100 -17.5 180.5t-55 144t-102 98.5t-151.5 35q-95 0 -178.5 -64t-105.5 -155q-15 -72 -15 -121v-311z" />
<glyph unicode="q" horiz-adv-x="1181" d="M139 580q0 132 25.5 236t78 180.5t137 117.5t198.5 41q100 0 179 -50.5t120 -113.5l12 135h98v-1536h-110v516q-52 -65 -125.5 -101t-190.5 -36q-210 0 -316 162t-106 449zM254 580q0 -149 30 -257t101 -174.5t180 -66.5q97 0 178.5 49t120.5 152q19 51 19 108v307 q0 59 -17 121q-20 92 -104.5 155.5t-181.5 63.5q-87 0 -151.5 -35t-102 -98.5t-55 -144t-17.5 -180.5z" />
<glyph unicode="r" horiz-adv-x="708" d="M195 0v1126h114v-180q45 98 126 150.5t183 52.5q20 0 66 -4v-103q-28 7 -49 7q-107 0 -198.5 -70t-119.5 -195q-8 -35 -8 -90v-694h-114z" />
<glyph unicode="s" horiz-adv-x="884" d="M43 178l82 74q30 -49 74.5 -85t91.5 -55t88 -27.5t76 -8.5q135 0 205.5 57.5t70.5 145.5q0 29 -6.5 53t-16.5 41.5t-29.5 33.5t-36.5 26t-47 22t-51.5 19t-60 19t-63.5 21q-64 23 -107.5 42t-89.5 48t-73 61.5t-44.5 78.5t-17.5 102q0 147 103.5 231t246.5 84 q190 0 322 -129l-64 -86q-91 107 -252 107q-47 0 -89.5 -12.5t-78 -37.5t-56.5 -68t-21 -99q0 -57 35.5 -98t92 -65.5t125 -45.5t136.5 -47t124.5 -60.5t92 -95.5t35.5 -143q0 -83 -32 -145.5t-87.5 -97.5t-122 -52t-143.5 -17q-114 0 -234.5 57.5t-177.5 151.5z" />
<glyph unicode="t" horiz-adv-x="737" d="M37 1028v98h246v238h114v-238h279v-98h-279v-762q0 -105 20.5 -146.5t82.5 -41.5q66 0 129 45l37 -96q-82 -58 -172 -58q-94 0 -152.5 48t-58.5 153v858h-246z" />
<glyph unicode="u" horiz-adv-x="1185" d="M178 418l2 708h115l-2 -733q0 -53 5.5 -95.5t22.5 -85t45 -71t76 -46t113 -17.5q175 0 332 170v878h114v-1126h-114v127q-165 -158 -355 -158q-184 0 -269 110.5t-85 338.5z" />
<glyph unicode="v" horiz-adv-x="1021" d="M23 1126h118l363 -999l377 999h118l-417 -1126h-146z" />
<glyph unicode="w" horiz-adv-x="1556" d="M12 1126h127l316 -989l260 989h127l256 -989l319 989h127l-373 -1126h-131l-262 950l-260 -950h-131z" />
<glyph unicode="x" horiz-adv-x="1095" d="M72 2l405 561l-403 563h135l346 -487l360 487h136l-410 -561l410 -563h-138l-358 487l-348 -487h-135z" />
<glyph unicode="y" horiz-adv-x="1021" d="M23 1126h133l350 -993l360 993h133l-563 -1536h-121l134 379z" />
<glyph unicode="z" horiz-adv-x="1019" d="M106 0l594 1020h-530v106h721l-594 -1020h627v-106h-818z" />
<glyph unicode="{" horiz-adv-x="655" d="M131 543v104q40 3 88.5 67.5t48.5 139.5q0 392 81 581.5t241 198.5v-108q-207 -15 -215 -662q-1 -58 -14 -107.5t-30 -78t-34.5 -49t-25.5 -28t-5 -7.5q-3 0 5 -7.5t25.5 -27.5t34.5 -48.5t30 -78t14 -108.5q8 -645 215 -660v-108q-158 9 -240 203.5t-82 574.5 q0 76 -48 140t-89 69z" />
<glyph unicode="|" horiz-adv-x="575" d="M227 -512v2048h121v-2048h-121z" />
<glyph unicode="}" horiz-adv-x="655" d="M70 -336q211 15 215 660q1 59 14 108.5t29.5 78t34 48.5t25.5 27.5t5 7.5q3 0 -5 7.5t-25.5 28t-34 49t-29.5 78t-14 107.5q-4 647 -215 662v108q160 -9 240.5 -198.5t80.5 -581.5q0 -75 48.5 -139.5t88.5 -67.5v-104q-41 -5 -89 -69t-48 -140q0 -760 -321 -778v108z" />
<glyph unicode="~" d="M41 510q69 88 162.5 125.5t195 24.5t205.5 -70q92 -49 175.5 -51.5t138.5 27t94 81.5l80 -76q-57 -73 -143 -110.5t-194.5 -31.5t-217.5 63q-268 138 -416 -54z" />
<glyph unicode="&#xa1;" horiz-adv-x="585" d="M184 1446q0 44 32.5 76t76.5 32q43 0 74.5 -32t31.5 -76t-31.5 -75.5t-74.5 -31.5q-44 0 -76.5 31.5t-32.5 75.5zM221 -94l4 1231h129l4 -1231h-137z" />
<glyph unicode="&#xa2;" horiz-adv-x="1142" d="M168 567q0 246 117 402t305 186v156h112v-152q231 -12 340 -217l-88 -59q-79 154 -252 168v-973q186 13 275 155l84 -69q-24 -33 -43 -55t-51 -49t-66.5 -43.5t-85.5 -29.5t-113 -16v-131h-112v131q-201 21 -311.5 180.5t-110.5 415.5zM283 567q0 -98 17.5 -177 t46.5 -131.5t69.5 -90t83 -56.5t90.5 -28v960q-46 -11 -87.5 -32t-82.5 -59.5t-70.5 -90t-48 -127.5t-18.5 -168z" />
<glyph unicode="&#xa3;" horiz-adv-x="1089" d="M41 526v97h221v581q0 180 103.5 275.5t265.5 95.5q130 0 262 -59l-33 -101q-35 21 -94.5 35t-114.5 14q-110 0 -188 -60t-78 -161v-620h336v-97h-336v-417h645v-109h-768v526h-221z" />
<glyph unicode="&#xa4;" horiz-adv-x="1073" d="M92 993l78 78l137 -141q107 76 228 76q126 0 231 -78l145 133l52 -86l-127 -115q84 -108 84 -246q0 -131 -80 -239l141 -144l-78 -77l-143 145q-99 -74 -225 -74q-119 0 -222 70l-139 -141l-80 77l137 140q-86 107 -86 243q0 134 82 240zM264 614q0 -112 80 -191t191 -79 q115 0 195.5 78.5t80.5 191.5q0 114 -80.5 195.5t-195.5 81.5q-111 0 -191 -81.5t-80 -195.5z" />
<glyph unicode="&#xa5;" horiz-adv-x="1255" d="M41 1485h141l443 -705l442 705h141l-522 -817v-15h471v-96h-471v-168h471v-96h-471v-293h-121v293h-465v96h465v168h-465v96h465v17z" />
<glyph unicode="&#xa6;" horiz-adv-x="518" d="M199 246h120v-758h-120v758zM199 778v758h120v-758h-120z" />
<glyph unicode="&#xa7;" horiz-adv-x="1343" d="M162 -238l76 82q162 -245 464 -245q88 0 158.5 25t113 65.5t65 88.5t22.5 99q-2 59 -15.5 98.5t-51 81.5t-110 79.5t-188.5 78.5q-163 56 -240 99q-223 126 -223 341q0 138 93 242q-93 100 -93 240q0 74 28.5 140.5t82 119.5t139.5 84.5t193 31.5q148 0 260 -62.5 t176 -164.5l-92 -59q-43 75 -134 126.5t-210 51.5q-145 0 -233.5 -74t-88.5 -192q0 -43 11.5 -79.5t37 -66t54.5 -53t76 -47t89 -40.5t105 -40q12 -4 37 -13q52 -18 80 -28.5t79 -33.5t81 -44t68 -55.5t59 -72.5t36 -91.5t15 -114.5q0 -130 -84 -231q84 -97 84 -252 q0 -77 -32.5 -147t-92 -123.5t-151.5 -85t-204 -31.5q-91 0 -171.5 19t-136 46.5t-104 66.5t-76.5 71.5t-52 68.5zM354 655q0 -39 12 -74t28.5 -60.5t48.5 -51t58.5 -42t71.5 -36t74 -30.5t80 -29q12 -4 51 -18t60 -22.5t54.5 -22t61.5 -28.5t54 -32q53 71 53 149 q0 56 -17 100.5t-44.5 77t-77 62t-99.5 50.5t-127 48q-7 3 -35 12.5t-40.5 14.5t-38.5 15t-43 17.5t-40 18.5t-43.5 22.5t-39.5 24.5q-62 -65 -62 -166z" />
<glyph unicode="&#xa8;" horiz-adv-x="839" d="M174 1421q0 29 21.5 50.5t52.5 21.5q29 0 50 -21.5t21 -50.5t-21 -50t-50 -21q-31 0 -52.5 21t-21.5 50zM520 1421q0 29 21.5 50.5t50.5 21.5q30 0 51 -21t21 -51q0 -29 -21 -50t-51 -21q-29 0 -50.5 21t-21.5 50z" />
<glyph unicode="&#xa9;" horiz-adv-x="1765" d="M111 748q0 158 61 301t164.5 247t247 165t301.5 61q157 0 299.5 -61t245.5 -165t164 -247t61 -301q0 -157 -61 -300t-164 -246.5t-245.5 -165t-299.5 -61.5q-158 0 -301.5 61.5t-247 165t-164.5 246.5t-61 300zM215 750q0 -182 90 -336.5t244 -244t336 -89.5 q137 0 260.5 53t212.5 142.5t141.5 213.5t52.5 261q0 135 -52.5 258.5t-141.5 213t-212.5 142.5t-260.5 53q-181 0 -335.5 -89.5t-244.5 -243.5t-90 -334zM469 745q0 225 117.5 360.5t302.5 135.5q56 0 107 -12.5t82.5 -27.5t64.5 -40.5t45 -37.5t31 -33l-66 -93 q-47 54 -104.5 84.5t-155.5 30.5q-38 0 -75 -9.5t-77 -35.5t-69.5 -66t-48.5 -106t-19 -150q0 -88 21 -156t52 -107t71.5 -64.5t75.5 -34t69 -8.5q175 0 254 121l72 -88q-24 -30 -47.5 -51.5t-63.5 -48t-97.5 -40.5t-127.5 -14q-95 0 -174.5 40.5t-131 109t-80 156.5 t-28.5 185z" />
<glyph unicode="&#xaa;" horiz-adv-x="724" d="M86 991q0 123 106.5 177.5t337.5 68.5v35q1 65 -42 99t-111 34q-103 0 -225 -66l-15 91q130 73 250 73q110 0 179 -54t69 -175v-467h-90l-15 65q-55 -43 -105 -63.5t-118 -20.5q-105 0 -163 55t-58 148zM190 991q0 -55 37 -83.5t97 -28.5q98 0 208 96v176 q-83 -7 -137.5 -16t-105 -26t-75 -46.5t-24.5 -71.5z" />
<glyph unicode="&#xab;" horiz-adv-x="1409" d="M35 565l737 506v-141l-536 -365l536 -377v-141zM530 565l740 506v-141l-539 -365l539 -377v-141z" />
<glyph unicode="&#xac;" horiz-adv-x="1120" d="M35 1016v110h975v-596h-121v486h-854z" />
<glyph unicode="&#xad;" horiz-adv-x="929" d="M131 494v149h668v-149h-668z" />
<glyph unicode="&#xae;" horiz-adv-x="1480" d="M121 856q0 168 83 311.5t226.5 227.5t312.5 84q126 0 240.5 -49.5t197 -133.5t131 -199t48.5 -241q0 -125 -48.5 -240t-131 -198t-197 -132.5t-240.5 -49.5q-168 0 -311.5 83.5t-227 226.5t-83.5 310zM205 860q0 -145 71.5 -269t194.5 -196.5t268 -72.5q109 0 208 43 t170 115t113 171.5t42 208.5q1 149 -72 272t-195 192t-264 69q-146 0 -269.5 -71t-195 -193.5t-71.5 -268.5zM569 485v777h148q117 0 178 -67t61 -155q0 -159 -161 -211q41 -21 73 -72t50 -102l61 -170h-66l-43 123q-33 99 -89 150.5t-146 48.5v-322h-66zM635 881 q118 0 187 38.5t69 102.5q0 162 -186 162h-70v-303z" />
<glyph unicode="&#xaf;" horiz-adv-x="651" d="M-27 1364v109h705v-109h-705z" />
<glyph unicode="&#xb0;" horiz-adv-x="743" d="M100 1202q0 114 80 193.5t193 79.5q114 0 192 -79.5t78 -193.5q0 -113 -78.5 -192.5t-191.5 -79.5t-193 80t-80 192zM184 1202q0 -78 55.5 -133t133.5 -55q79 0 134.5 55t55.5 133q0 80 -55.5 135.5t-134.5 55.5q-78 0 -133.5 -56t-55.5 -135z" />
<glyph unicode="&#xb1;" horiz-adv-x="1216" d="M41 0v119h1135v-119h-1135zM41 682v121h508v442h119v-442h508v-121h-508v-440h-119v440h-508z" />
<glyph unicode="&#xb2;" horiz-adv-x="677" d="M53 649q0 41 7 76t17 62t32.5 54.5t40.5 46.5t54.5 45t61.5 42.5t74 46.5q41 24 66.5 42t54 45.5t42 60t13.5 71.5q0 85 -48 131.5t-128 46.5q-54 0 -107.5 -33.5t-74.5 -97.5l-74 49q23 85 99 133t161 48q119 0 198 -72t79 -205q0 -66 -27 -120t-69 -92.5t-113 -84.5 q-16 -10 -48 -29.5t-47.5 -29.5t-40 -26.5t-37.5 -27.5t-27 -25.5t-20 -28t-6 -27.5h414v-103z" />
<glyph unicode="&#xb3;" horiz-adv-x="600" d="M49 737l39 86q27 -40 73 -65t99 -25q67 0 118.5 39.5t51.5 108.5q0 75 -66 113.5t-182 43.5v97q37 3 71 11t67 25t53 47t20 70q0 59 -43.5 103.5t-128.5 44.5q-16 0 -90 -17v97q12 2 32 6.5t35 7t29 2.5q130 0 199.5 -70.5t69.5 -165.5q0 -77 -45.5 -131.5t-110.5 -70.5 q80 -10 138.5 -69.5t58.5 -150.5q0 -96 -73 -165.5t-194 -69.5q-142 0 -221 98z" />
<glyph unicode="&#xb4;" horiz-adv-x="196" d="M8 1241l148 295h129l-183 -295h-94z" />
<glyph unicode="&#xb6;" horiz-adv-x="1101" d="M102 1120q0 190 134 305t350 115h368l-4 -2052h-119v1946h-172v-1946h-118v1194q-119 1 -218.5 54.5t-160 154.5t-60.5 229z" />
<glyph unicode="&#xb7;" horiz-adv-x="409" d="M96 727q0 44 32 76.5t75 32.5q44 0 76 -32.5t32 -76.5t-32 -75t-76 -31t-75.5 31t-31.5 75z" />
<glyph unicode="&#xb8;" horiz-adv-x="454" d="M20 -252q90 -22 142 -22q79 0 115 42.5t36 135.5q0 34 -10 96h119q12 -64 12 -117q0 -134 -71.5 -200t-186.5 -66q-73 0 -156 25v106z" />
<glyph unicode="&#xb9;" horiz-adv-x="415" d="M111 1382l49 103h157v-838h-108v735h-98z" />
<glyph unicode="&#xba;" horiz-adv-x="847" d="M109 1176q0 167 84.5 263.5t224.5 96.5q152 0 235.5 -96t83.5 -262q0 -161 -83.5 -259t-233.5 -98q-77 0 -138 30t-98 80.5t-56 113t-19 131.5zM215 1178q0 -129 54.5 -193.5t150.5 -64.5q95 0 153 69t58 189q0 262 -213 262q-94 0 -148.5 -64t-54.5 -198z" />
<glyph unicode="&#xbb;" horiz-adv-x="1409" d="M139 47v141l539 377l-539 365v141l738 -506zM635 47v141l539 377l-539 365v141l739 -506z" />
<glyph unicode="&#xbc;" horiz-adv-x="1333" d="M113 1382l51 103h155l-2 -838h-104v735h-100zM174 -20l815 1515h119l-815 -1515h-119zM674 233v101l346 489h129v-489h100v-103h-100v-229h-115v231h-360zM801 334h233v336z" />
<glyph unicode="&#xbd;" horiz-adv-x="1513" d="M113 1382l49 103h155v-838h-106v735h-98zM174 -20l815 1515h119l-815 -1515h-119zM856 4q0 36 4 66t15 57.5t21.5 48t33 44t39 38.5t51 38.5t56.5 38t67 42.5q41 25 65.5 43.5t52.5 46t41 59.5t13 70q0 83 -48 129.5t-128 46.5q-53 0 -105.5 -32.5t-75.5 -96.5l-73 53 q25 83 100 129.5t158 46.5q119 0 196.5 -71.5t77.5 -204.5q0 -94 -49 -159.5t-156 -135.5q-18 -12 -65 -42t-65 -42.5t-45.5 -35t-37.5 -40t-10 -35.5h408v-102h-541z" />
<glyph unicode="&#xbe;" horiz-adv-x="1523" d="M94 731l37 86q29 -41 74.5 -66.5t97.5 -25.5q68 0 121 41t53 111q0 75 -67 113.5t-183 43.5v99q51 2 96 15.5t81 49t36 88.5q0 59 -43.5 101.5t-130.5 42.5q-32 0 -92 -13v96q68 11 100 11q130 0 198.5 -67.5t68.5 -162.5q0 -79 -45.5 -133.5t-110.5 -70.5 q80 -10 138.5 -70t58.5 -150q0 -97 -73.5 -168t-195.5 -71q-139 0 -219 100zM352 -20l815 1515h117l-813 -1515h-119zM848 233v101l346 489h129v-489h100v-103h-100v-229h-117v231h-358zM975 334h231v336z" />
<glyph unicode="&#xbf;" horiz-adv-x="937" d="M86 -82q0 72 18 132t43.5 99t68 74.5t75.5 54.5t82 44q25 11 71 30q41 16 60 25t46 27t38 37.5t18 51t2 72.5l-18 156h119q17 -106 19.5 -185t-32 -142.5t-114.5 -108.5q-36 -20 -89 -43t-89 -38t-76.5 -41t-64.5 -56.5t-40 -80.5t-16 -116q0 -145 85 -227t218 -82 q92 0 160 25t129 77l57 -86q-149 -125 -350 -125q-83 0 -156.5 25t-133.5 75t-95 134t-35 192zM516 1038q0 44 32.5 76.5t76.5 32.5t75 -32t31 -77q0 -44 -31 -75t-75 -31q-45 0 -77 31t-32 75z" />
<glyph unicode="&#xc0;" horiz-adv-x="1286" d="M10 0l559 1485h150l557 -1485h-131l-215 588h-572l-217 -588h-131zM397 696h492l-244 660h-4zM463 1894l127 -22l123 -273l-99 23z" />
<glyph unicode="&#xc1;" horiz-adv-x="1286" d="M10 0l559 1485h150l557 -1485h-131l-215 588h-572l-217 -588h-131zM397 696h492l-244 660h-4zM571 1599l148 295h129l-182 -295h-95z" />
<glyph unicode="&#xc2;" horiz-adv-x="1286" d="M10 0l559 1485h150l557 -1485h-131l-215 588h-572l-217 -588h-131zM350 1602l238 292h110l238 -292h-111l-184 196l-182 -196h-109zM397 696h492l-244 660h-4z" />
<glyph unicode="&#xc3;" horiz-adv-x="1286" d="M10 0l559 1485h150l557 -1485h-131l-215 588h-572l-217 -588h-131zM346 1683q63 94 152 111.5t180 -39.5q48 -28 86.5 -29.5t64.5 17t50 55.5l86 -39q-44 -71 -101.5 -102t-115 -24.5t-117.5 42.5q-48 28 -87.5 29.5t-67 -16.5t-56.5 -56zM397 696h492l-244 660h-4z" />
<glyph unicode="&#xc4;" horiz-adv-x="1286" d="M10 0l559 1485h150l557 -1485h-131l-215 588h-572l-217 -588h-131zM397 696h492l-244 660h-4zM399 1780q0 29 21.5 50t52.5 21q29 0 50.5 -21t21.5 -50t-21.5 -50.5t-50.5 -21.5q-31 0 -52.5 21.5t-21.5 50.5zM745 1780q0 29 21.5 50t50.5 21q31 0 51.5 -20.5t20.5 -50.5 t-21 -51t-51 -21q-29 0 -50.5 21.5t-21.5 50.5z" />
<glyph unicode="&#xc5;" horiz-adv-x="1286" d="M10 0l559 1485h150l557 -1485h-131l-215 588h-572l-217 -588h-131zM397 696h492l-244 660h-4zM451 1843q0 83 55.5 142t136.5 59t138 -59.5t57 -141.5q0 -80 -57 -137t-138 -57q-83 0 -137.5 56t-54.5 138zM520 1847q0 -51 37 -90t88 -39q50 0 87.5 41t37.5 88 q0 49 -38 87t-87 38t-87 -38t-38 -87z" />
<glyph unicode="&#xc6;" horiz-adv-x="1511" d="M10 0l559 1485h838v-109h-567v-575h456v-109h-456v-583h567v-109h-686v588h-365l-215 -588h-131zM397 696h324v680h-74z" />
<glyph unicode="&#xc7;" horiz-adv-x="1425" d="M160 741q0 129 24.5 244.5t75 213t123 168.5t174.5 111t223 40q78 0 152 -15t151 -49.5t137.5 -102.5t90.5 -163l-101 -43q-37 122 -156 191t-276 69q-104 0 -188.5 -38.5t-140.5 -103t-94.5 -151.5t-55 -180t-16.5 -193q0 -102 14.5 -192.5t51 -177.5t91.5 -149 t141.5 -100t196.5 -38q104 0 188 23t148.5 76t93.5 132l111 -28q-114 -299 -494 -316q4 -46 4 -63q0 -134 -71.5 -200t-186.5 -66q-76 0 -155 24v107q94 -23 141 -23q79 0 115.5 43t36.5 135q0 15 -4 47q-177 19 -302 127.5t-184 272.5t-59 368z" />
<glyph unicode="&#xc8;" horiz-adv-x="1028" d="M225 0v1485h686v-109h-567v-575h457v-109h-457v-583h567v-109h-686zM389 1894l127 -22l123 -273l-98 23z" />
<glyph unicode="&#xc9;" horiz-adv-x="1028" d="M225 0v1485h686v-109h-567v-575h457v-109h-457v-583h567v-109h-686zM496 1599l147 295h129l-182 -295h-94z" />
<glyph unicode="&#xca;" horiz-adv-x="1028" d="M225 0v1485h686v-109h-567v-575h457v-109h-457v-583h567v-109h-686zM274 1602l238 292h111l237 -292h-110l-185 196l-182 -196h-109z" />
<glyph unicode="&#xcb;" horiz-adv-x="1028" d="M225 0v1485h686v-109h-567v-575h457v-109h-457v-583h567v-109h-686zM324 1780q0 29 21 50t52 21q29 0 50.5 -21t21.5 -50t-21.5 -50.5t-50.5 -21.5q-31 0 -52 21t-21 51zM670 1780q0 29 21 50t50 21q31 0 51.5 -20.5t20.5 -50.5t-21 -51t-51 -21q-29 0 -50 21.5t-21 50.5 z" />
<glyph unicode="&#xcc;" horiz-adv-x="571" d="M106 1894l127 -22l123 -273l-98 23zM225 0v1485h121v-1485h-121z" />
<glyph unicode="&#xcd;" horiz-adv-x="571" d="M225 0v1485h121v-1485h-121zM231 1593l146 295h131l-182 -295h-95z" />
<glyph unicode="&#xce;" horiz-adv-x="571" d="M-8 1602l237 292h111l238 -292h-111l-184 196l-183 -196h-108zM225 0v1485h121v-1485h-121z" />
<glyph unicode="&#xcf;" horiz-adv-x="571" d="M41 1780q0 29 21.5 50t52.5 21q29 0 50 -21t21 -50t-21 -50.5t-50 -21.5q-31 0 -52.5 21.5t-21.5 50.5zM225 0v1485h121v-1485h-121zM387 1780q0 29 21.5 50t50.5 21q30 0 50.5 -20.5t20.5 -50.5t-20.5 -51t-50.5 -21q-29 0 -50.5 21.5t-21.5 50.5z" />
<glyph unicode="&#xd0;" horiz-adv-x="1447" d="M16 737v109h207v639h445q154 0 271 -56t189 -157t108 -234.5t36 -294.5q0 -166 -33.5 -298.5t-103.5 -233.5t-188.5 -156t-278.5 -55h-445v737h-207zM344 127h303q256 0 375 151t119 461q0 101 -13.5 187t-48 168t-89 138.5t-142 91t-201.5 34.5h-303v-512h377v-109h-377 v-610z" />
<glyph unicode="&#xd1;" horiz-adv-x="1296" d="M201 0v1485h184l588 -1288v1288h123v-1485h-166l-608 1346v-1346h-121zM344 1683q63 94 152 111.5t180 -39.5q48 -28 86.5 -29.5t64.5 17t50 55.5l86 -39q-44 -71 -101.5 -102t-115 -24.5t-117.5 42.5q-48 28 -87.5 29.5t-67 -16.5t-56.5 -56z" />
<glyph unicode="&#xd2;" horiz-adv-x="1552" d="M174 743q0 129 22 243t69.5 212t117 169t170 111t223.5 40t223.5 -40t170 -111t117 -169t69.5 -212t22 -243q0 -131 -22 -245.5t-69.5 -212.5t-117 -167.5t-170 -109t-223.5 -39.5t-223.5 39.5t-170 109t-117 167.5t-69.5 212.5t-22 245.5zM301 739q0 -85 8.5 -160.5 t28.5 -151.5t56.5 -136t87 -107t126 -72.5t168.5 -25.5q475 0 475 653q0 103 -11.5 192t-44 178t-84 151.5t-137 101.5t-198.5 39q-111 0 -196.5 -39t-137.5 -101.5t-84.5 -151.5t-44.5 -178t-12 -192zM596 1894l127 -22l123 -273l-98 23z" />
<glyph unicode="&#xd3;" horiz-adv-x="1552" d="M174 743q0 129 22 243t69.5 212t117 169t170 111t223.5 40t223.5 -40t170 -111t117 -169t69.5 -212t22 -243q0 -131 -22 -245.5t-69.5 -212.5t-117 -167.5t-170 -109t-223.5 -39.5t-223.5 39.5t-170 109t-117 167.5t-69.5 212.5t-22 245.5zM301 739q0 -85 8.5 -160.5 t28.5 -151.5t56.5 -136t87 -107t126 -72.5t168.5 -25.5q475 0 475 653q0 103 -11.5 192t-44 178t-84 151.5t-137 101.5t-198.5 39q-111 0 -196.5 -39t-137.5 -101.5t-84.5 -151.5t-44.5 -178t-12 -192zM705 1599l147 295h129l-182 -295h-94z" />
<glyph unicode="&#xd4;" horiz-adv-x="1552" d="M174 743q0 129 22 243t69.5 212t117 169t170 111t223.5 40t223.5 -40t170 -111t117 -169t69.5 -212t22 -243q0 -131 -22 -245.5t-69.5 -212.5t-117 -167.5t-170 -109t-223.5 -39.5t-223.5 39.5t-170 109t-117 167.5t-69.5 212.5t-22 245.5zM301 739q0 -85 8.5 -160.5 t28.5 -151.5t56.5 -136t87 -107t126 -72.5t168.5 -25.5q475 0 475 653q0 103 -11.5 192t-44 178t-84 151.5t-137 101.5t-198.5 39q-111 0 -196.5 -39t-137.5 -101.5t-84.5 -151.5t-44.5 -178t-12 -192zM481 1602l238 292h110l238 -292h-111l-184 196l-182 -196h-109z" />
<glyph unicode="&#xd5;" horiz-adv-x="1552" d="M174 743q0 129 22 243t69.5 212t117 169t170 111t223.5 40t223.5 -40t170 -111t117 -169t69.5 -212t22 -243q0 -131 -22 -245.5t-69.5 -212.5t-117 -167.5t-170 -109t-223.5 -39.5t-223.5 39.5t-170 109t-117 167.5t-69.5 212.5t-22 245.5zM301 739q0 -85 8.5 -160.5 t28.5 -151.5t56.5 -136t87 -107t126 -72.5t168.5 -25.5q475 0 475 653q0 103 -11.5 192t-44 178t-84 151.5t-137 101.5t-198.5 39q-111 0 -196.5 -39t-137.5 -101.5t-84.5 -151.5t-44.5 -178t-12 -192zM477 1683q63 94 152 111.5t180 -39.5q48 -28 86.5 -29.5t64.5 17 t50 55.5l86 -39q-44 -71 -101.5 -102t-115 -24.5t-117.5 42.5q-48 28 -87.5 29.5t-67 -16.5t-56.5 -56z" />
<glyph unicode="&#xd6;" horiz-adv-x="1466" d="M131 743q0 129 22 243t69.5 212t117 169t170 111t223.5 40t223.5 -40t170 -111t117 -169t69.5 -212t22 -243q0 -131 -22 -245.5t-69.5 -212.5t-117 -167.5t-170 -109t-223.5 -39.5t-223.5 39.5t-170 109t-117 167.5t-69.5 212.5t-22 245.5zM242 739q0 -102 13.5 -191.5 t48.5 -175.5t89.5 -147t141 -98t198.5 -37q81 0 149.5 19.5t118.5 53t89 82t64 104t41.5 121.5t23 131.5t6.5 137.5q0 102 -13.5 191.5t-48 177t-88.5 150t-141.5 101t-200.5 38.5q-111 0 -198 -38.5t-141.5 -101t-89.5 -150t-48.5 -177t-13.5 -191.5zM485 1632 q0 29 21.5 50.5t50.5 21.5q30 0 51 -21t21 -51q0 -31 -20.5 -51t-51.5 -20q-30 0 -51 20.5t-21 50.5zM831 1632q0 30 21 51t51 21t51 -21t21 -51q0 -31 -20.5 -51t-51.5 -20t-51.5 20t-20.5 51z" />
<glyph unicode="&#xd7;" horiz-adv-x="1118" d="M41 39l453 448l-451 451l66 68l452 -451l449 451l61 -68l-446 -444l452 -455l-63 -66l-453 453l-452 -453z" />
<glyph unicode="&#xd8;" horiz-adv-x="1552" d="M174 743q0 129 22 243t69.5 212t117 169t170 111t223.5 40q183 0 320 -91l73 132l86 -52l-81 -145q103 -104 153.5 -264.5t50.5 -354.5q0 -131 -22 -245.5t-69.5 -212.5t-117 -167.5t-170 -109t-223.5 -39.5q-187 0 -323 90l-72 -131l-88 49l82 150q-100 102 -150.5 262 t-50.5 354zM301 739q0 -340 133 -506l606 1094q-107 74 -264 74q-111 0 -196.5 -39t-137.5 -101.5t-84.5 -151.5t-44.5 -178t-12 -192zM510 162q105 -76 266 -76q475 0 475 653q0 349 -135 516z" />
<glyph unicode="&#xd9;" horiz-adv-x="1406" d="M225 627v858h121v-858q0 -64 3 -114t12 -109t25 -103.5t44 -88t66.5 -71t94.5 -44.5t126 -17q72 0 129.5 18t95.5 45.5t65.5 72.5t42.5 87.5t23 102t10 104.5t2 106v869h121v-869q0 -165 -24.5 -281.5t-80.5 -200.5t-151 -124.5t-233 -40.5q-260 0 -376 157t-116 501z M512 1894l127 -22l123 -273l-98 23z" />
<glyph unicode="&#xda;" horiz-adv-x="1406" d="M225 627v858h121v-858q0 -64 3 -114t12 -109t25 -103.5t44 -88t66.5 -71t94.5 -44.5t126 -17q72 0 129.5 18t95.5 45.5t65.5 72.5t42.5 87.5t23 102t10 104.5t2 106v869h121v-869q0 -165 -24.5 -281.5t-80.5 -200.5t-151 -124.5t-233 -40.5q-260 0 -376 157t-116 501z M618 1599l148 295h129l-182 -295h-95z" />
<glyph unicode="&#xdb;" horiz-adv-x="1406" d="M225 627v858h121v-858q0 -64 3 -114t12 -109t25 -103.5t44 -88t66.5 -71t94.5 -44.5t126 -17q72 0 129.5 18t95.5 45.5t65.5 72.5t42.5 87.5t23 102t10 104.5t2 106v869h121v-869q0 -165 -24.5 -281.5t-80.5 -200.5t-151 -124.5t-233 -40.5q-260 0 -376 157t-116 501z M397 1602l238 292h110l238 -292h-111l-184 196l-182 -196h-109z" />
<glyph unicode="&#xdc;" horiz-adv-x="1406" d="M225 627v858h121v-858q0 -64 3 -114t12 -109t25 -103.5t44 -88t66.5 -71t94.5 -44.5t126 -17q72 0 129.5 18t95.5 45.5t65.5 72.5t42.5 87.5t23 102t10 104.5t2 106v869h121v-869q0 -165 -24.5 -281.5t-80.5 -200.5t-151 -124.5t-233 -40.5q-260 0 -376 157t-116 501z M446 1780q0 29 21.5 50t52.5 21q29 0 50.5 -21t21.5 -50t-21.5 -50.5t-50.5 -21.5q-31 0 -52.5 21.5t-21.5 50.5zM793 1780q0 29 21 50t50 21q30 0 51 -20.5t21 -50.5t-21 -51t-51 -21q-29 0 -50 21.5t-21 50.5z" />
<glyph unicode="&#xdd;" horiz-adv-x="1249" d="M41 1485h141l443 -703l442 703h141l-522 -813v-672h-123v674zM543 1599l147 295h129l-182 -295h-94z" />
<glyph unicode="&#xde;" horiz-adv-x="1060" d="M227 0v1485h121v-252q71 0 124.5 -3t116 -10t108.5 -21.5t93 -36.5t79 -55.5t58.5 -78t39 -105t12.5 -135.5q0 -228 -150 -327.5t-481 -102.5v-358h-121zM348 473q198 2 308 33.5t156 97.5t46 182q0 66 -11.5 113.5t-44 90.5t-88.5 69.5t-147 42.5t-219 18v-647z" />
<glyph unicode="&#xdf;" horiz-adv-x="1363" d="M238 0v1178q0 75 23.5 137t63 103t92.5 69t110.5 40.5t119.5 12.5q96 0 175 -26t130 -68.5t85.5 -99t49.5 -114t15 -116.5q0 -69 -22 -130t-59 -103t-79 -70.5t-86 -42.5q143 -25 234.5 -136.5t91.5 -266.5q0 -81 -26.5 -151.5t-77 -125.5t-132.5 -87t-186 -32 q-90 0 -160 21v112q82 -22 158 -22q131 0 216 78.5t85 210.5q0 158 -124 246t-327 90v116q48 3 94 12t99 30.5t92.5 52t65.5 81t26 113.5q0 44 -11.5 87t-37.5 84t-64 72.5t-96.5 50.5t-128.5 19q-152 0 -223.5 -59.5t-71.5 -179.5v-1186h-114z" />
<glyph unicode="&#xe0;" d="M102 281q0 128 68.5 213t232 142t439.5 85v70q0 128 -76.5 193t-192.5 65q-88 0 -181.5 -26t-158.5 -58l-47 94q67 41 178 70.5t211 29.5q78 0 142.5 -17.5t119.5 -55.5t86 -107.5t31 -165.5v-813h-100l-14 137q-164 -168 -414 -168q-158 0 -241 88.5t-83 223.5zM217 281 q0 -111 59.5 -158t190.5 -47q89 0 190 47.5t183 134.5l2 356q-108 -15 -184 -28t-152 -32.5t-125 -43.5t-88.5 -56t-57.5 -75t-18 -98zM389 1536l127 -23l123 -272l-98 23z" />
<glyph unicode="&#xe1;" d="M102 281q0 128 68.5 213t232 142t439.5 85v70q0 128 -76.5 193t-192.5 65q-88 0 -181.5 -26t-158.5 -58l-47 94q67 41 178 70.5t211 29.5q78 0 142.5 -17.5t119.5 -55.5t86 -107.5t31 -165.5v-813h-100l-14 137q-164 -168 -414 -168q-158 0 -241 88.5t-83 223.5zM217 281 q0 -111 59.5 -158t190.5 -47q89 0 190 47.5t183 134.5l2 356q-108 -15 -184 -28t-152 -32.5t-125 -43.5t-88.5 -56t-57.5 -75t-18 -98zM498 1241l147 295h129l-182 -295h-94z" />
<glyph unicode="&#xe2;" d="M102 281q0 128 68.5 213t232 142t439.5 85v70q0 128 -76.5 193t-192.5 65q-88 0 -181.5 -26t-158.5 -58l-47 94q67 41 178 70.5t211 29.5q78 0 142.5 -17.5t119.5 -55.5t86 -107.5t31 -165.5v-813h-100l-14 137q-164 -168 -414 -168q-158 0 -241 88.5t-83 223.5zM217 281 q0 -111 59.5 -158t190.5 -47q89 0 190 47.5t183 134.5l2 356q-108 -15 -184 -28t-152 -32.5t-125 -43.5t-88.5 -56t-57.5 -75t-18 -98zM276 1243l238 293h111l237 -293h-110l-185 197l-182 -197h-109z" />
<glyph unicode="&#xe3;" d="M102 281q0 128 68.5 213t232 142t439.5 85v70q0 128 -76.5 193t-192.5 65q-88 0 -181.5 -26t-158.5 -58l-47 94q67 41 178 70.5t211 29.5q78 0 142.5 -17.5t119.5 -55.5t86 -107.5t31 -165.5v-813h-100l-14 137q-164 -168 -414 -168q-158 0 -241 88.5t-83 223.5zM217 281 q0 -111 59.5 -158t190.5 -47q89 0 190 47.5t183 134.5l2 356q-108 -15 -184 -28t-152 -32.5t-125 -43.5t-88.5 -56t-57.5 -75t-18 -98zM272 1325q63 94 152 111.5t180 -39.5q48 -28 86.5 -29.5t64.5 17t50 55.5l86 -39q-44 -71 -101.5 -102t-115 -24.5t-117.5 42.5 q-48 28 -87.5 29.5t-67 -16.5t-56.5 -56z" />
<glyph unicode="&#xe4;" d="M102 281q0 128 68.5 213t232 142t439.5 85v70q0 128 -76.5 193t-192.5 65q-88 0 -181.5 -26t-158.5 -58l-47 94q67 41 178 70.5t211 29.5q78 0 142.5 -17.5t119.5 -55.5t86 -107.5t31 -165.5v-813h-100l-14 137q-164 -168 -414 -168q-158 0 -241 88.5t-83 223.5zM217 281 q0 -111 59.5 -158t190.5 -47q89 0 190 47.5t183 134.5l2 356q-108 -15 -184 -28t-152 -32.5t-125 -43.5t-88.5 -56t-57.5 -75t-18 -98zM326 1421q0 29 21 50.5t52 21.5q29 0 50.5 -21.5t21.5 -50.5t-21.5 -50t-50.5 -21q-31 0 -52 21t-21 50zM672 1421q0 29 21 50.5t50 21.5 q30 0 51 -21t21 -51q0 -29 -20.5 -50t-51.5 -21q-29 0 -50 21t-21 50z" />
<glyph unicode="&#xe5;" d="M102 281q0 128 68.5 213t232 142t439.5 85v70q0 128 -76.5 193t-192.5 65q-88 0 -181.5 -26t-158.5 -58l-47 94q67 41 178 70.5t211 29.5q78 0 142.5 -17.5t119.5 -55.5t86 -107.5t31 -165.5v-813h-100l-14 137q-164 -168 -414 -168q-158 0 -241 88.5t-83 223.5zM217 281 q0 -111 59.5 -158t190.5 -47q89 0 190 47.5t183 134.5l2 356q-108 -15 -184 -28t-152 -32.5t-125 -43.5t-88.5 -56t-57.5 -75t-18 -98zM377 1485q0 83 55.5 142t136.5 59t138 -59.5t57 -141.5q0 -80 -57 -137.5t-138 -57.5q-83 0 -137.5 56.5t-54.5 138.5zM446 1489 q0 -51 37 -90t88 -39q50 0 87.5 41t37.5 88q0 49 -38 87t-87 38t-87 -38t-38 -87z" />
<glyph unicode="&#xe6;" horiz-adv-x="1810" d="M102 281q0 124 64.5 208t217.5 141t411 87q12 87 36 151q-22 90 -92.5 135.5t-165.5 45.5q-88 0 -181.5 -26t-158.5 -58l-47 94q67 41 178 70.5t211 29.5q111 0 202.5 -34.5t137.5 -112.5q128 147 353 147q94 0 171 -27t138.5 -84t96.5 -155t36 -231l2 -78h-811v-21 q0 -230 95 -353.5t284 -123.5q107 0 178 42.5t113 135.5l98 -49q-37 -76 -83.5 -127t-125 -85t-182.5 -34q-270 0 -401 213l-19 -24q-173 -189 -432 -189q-158 0 -241 88.5t-83 223.5zM217 281q0 -111 59.5 -158t190.5 -47q89 0 190 47.5t183 134.5q-54 136 -54 315v33 q-117 -17 -198.5 -33.5t-156 -42t-119 -58.5t-70 -81t-25.5 -110zM907 692h688q-8 173 -88.5 267t-240.5 94q-311 0 -359 -361z" />
<glyph unicode="&#xe7;" horiz-adv-x="1116" d="M137 567q0 273 142 433.5t360 160.5q253 0 373 -219l-88 -59q-18 33 -38 58t-53.5 53t-84 43.5t-113.5 15.5q-49 0 -98.5 -14t-101.5 -49t-92 -88.5t-65.5 -140t-25.5 -194.5q0 -114 24 -202t62 -141t90 -87t102 -46.5t105 -12.5q213 0 311 155l84 -69 q-27 -36 -47.5 -59.5t-56.5 -51.5t-76 -44.5t-100 -28t-134 -11.5h-10q6 -47 6 -86q0 -134 -71.5 -200t-186.5 -66q-72 0 -155 25v106q90 -22 141 -22q79 0 115.5 43t36.5 135q0 12 -9 82q-166 44 -256 197t-90 384z" />
<glyph unicode="&#xe8;" horiz-adv-x="1169" d="M131 573q0 129 26.5 230.5t71 167t107.5 109t131.5 61.5t146.5 18q94 0 171 -27t138 -84.5t96 -156t36 -232.5l2 -75h-811v-21q0 -231 95.5 -358t283.5 -127q208 0 290 186l101 -49q-37 -75 -84 -126.5t-125.5 -85.5t-181.5 -34q-236 0 -365 159.5t-129 444.5zM254 692 h688q-16 361 -332 361q-311 0 -356 -361zM436 1536l127 -23l123 -272l-98 23z" />
<glyph unicode="&#xe9;" horiz-adv-x="1169" d="M131 573q0 129 26.5 230.5t71 167t107.5 109t131.5 61.5t146.5 18q94 0 171 -27t138 -84.5t96 -156t36 -232.5l2 -75h-811v-21q0 -231 95.5 -358t283.5 -127q208 0 290 186l101 -49q-37 -75 -84 -126.5t-125.5 -85.5t-181.5 -34q-236 0 -365 159.5t-129 444.5zM254 692 h688q-16 361 -332 361q-311 0 -356 -361zM543 1241l147 295h129l-182 -295h-94z" />
<glyph unicode="&#xea;" horiz-adv-x="1169" d="M131 573q0 129 26.5 230.5t71 167t107.5 109t131.5 61.5t146.5 18q94 0 171 -27t138 -84.5t96 -156t36 -232.5l2 -75h-811v-21q0 -231 95.5 -358t283.5 -127q208 0 290 186l101 -49q-37 -75 -84 -126.5t-125.5 -85.5t-181.5 -34q-236 0 -365 159.5t-129 444.5zM254 692 h688q-16 361 -332 361q-311 0 -356 -361zM322 1243l237 293h111l237 -293h-110l-185 197l-182 -197h-108z" />
<glyph unicode="&#xeb;" horiz-adv-x="1169" d="M131 573q0 129 26.5 230.5t71 167t107.5 109t131.5 61.5t146.5 18q94 0 171 -27t138 -84.5t96 -156t36 -232.5l2 -75h-811v-21q0 -231 95.5 -358t283.5 -127q208 0 290 186l101 -49q-37 -75 -84 -126.5t-125.5 -85.5t-181.5 -34q-236 0 -365 159.5t-129 444.5zM254 692 h688q-16 361 -332 361q-311 0 -356 -361zM371 1421q0 29 21.5 50.5t51.5 21.5q29 0 50.5 -21.5t21.5 -50.5t-21.5 -50t-50.5 -21q-31 0 -52 21t-21 50zM717 1421q0 29 21 50.5t50 21.5q30 0 51 -21t21 -51q0 -29 -21 -50t-51 -21q-29 0 -50 21t-21 50z" />
<glyph unicode="&#xec;" horiz-adv-x="509" d="M25 1536h120l158 -295h-94zM201 0v1126h114v-1126h-114z" />
<glyph unicode="&#xed;" horiz-adv-x="509" d="M201 0v1126h114v-1126h-114zM205 1241l147 295h131l-182 -295h-96z" />
<glyph unicode="&#xee;" horiz-adv-x="509" d="M-41 1243l238 293h110l238 -293h-72l-223 197l-219 -197h-72zM201 0v1126h114v-1126h-114z" />
<glyph unicode="&#xef;" horiz-adv-x="509" d="M6 1425q0 29 21.5 50.5t52.5 21.5q29 0 50.5 -21.5t21.5 -50.5q0 -31 -20.5 -52t-51.5 -21t-52.5 21t-21.5 52zM201 0v1126h114v-1126h-114zM336 1425q0 29 21.5 50.5t50.5 21.5q30 0 50.5 -21t20.5 -51q0 -31 -20 -52t-51 -21q-30 0 -51 21t-21 52z" />
<glyph unicode="&#xf0;" horiz-adv-x="1198" d="M139 547q0 606 443 606q54 0 105 -14.5t83 -33.5t51.5 -36t22.5 -25q-3 91 -65.5 181t-174.5 149l-203 -143l-61 86l147 104q-118 34 -243 31l141 96q130 -3 231 -37l140 101l61 -86l-90 -64q90 -55 150 -142t89.5 -203.5t40.5 -232t11 -268.5q0 -114 -15 -208t-40 -160 t-61 -116t-74.5 -80t-85 -49t-88 -25.5t-87.5 -6.5q-217 0 -322.5 153t-105.5 423zM254 545q0 -96 17.5 -174.5t53.5 -141.5t98.5 -98t145.5 -35q38 0 76.5 10.5t84 42t79.5 82t57 139t23 203.5q0 64 -11.5 125.5t-38.5 120.5t-66.5 103t-99 71t-132.5 27 q-146 0 -216.5 -125.5t-70.5 -349.5z" />
<glyph unicode="&#xf1;" horiz-adv-x="1196" d="M195 0v1126h114v-118q161 151 357 151q184 0 267 -108t83 -336v-715h-115v741q0 53 -5.5 94.5t-22.5 83.5t-44.5 69.5t-74.5 45t-111 17.5q-180 0 -334 -162v-889h-114zM215 1317q63 94 152 111.5t180 -39.5q48 -28 86.5 -29.5t64.5 17t50 55.5l86 -39 q-44 -71 -101.5 -102t-115 -24.5t-117.5 42.5q-48 28 -87.5 29.5t-67 -16.5t-56.5 -56z" />
<glyph unicode="&#xf2;" horiz-adv-x="1249" d="M139 559q0 273 127 436.5t344 163.5q240 0 370 -163.5t130 -436.5q0 -165 -56 -297t-169.5 -212.5t-268.5 -80.5q-149 0 -259.5 82t-164 214t-53.5 294zM262 559q0 -225 96 -353t258 -128q170 0 270.5 128.5t100.5 352.5q0 251 -98.5 371.5t-278.5 120.5 q-162 0 -255 -122.5t-93 -369.5zM432 1536l127 -23l123 -272l-98 23z" />
<glyph unicode="&#xf3;" horiz-adv-x="1249" d="M139 559q0 273 127 436.5t344 163.5q240 0 370 -163.5t130 -436.5q0 -165 -56 -297t-169.5 -212.5t-268.5 -80.5q-149 0 -259.5 82t-164 214t-53.5 294zM262 559q0 -225 96 -353t258 -128q170 0 270.5 128.5t100.5 352.5q0 251 -98.5 371.5t-278.5 120.5 q-162 0 -255 -122.5t-93 -369.5zM541 1241l147 295h129l-182 -295h-94z" />
<glyph unicode="&#xf4;" horiz-adv-x="1249" d="M139 559q0 273 127 436.5t344 163.5q240 0 370 -163.5t130 -436.5q0 -165 -56 -297t-169.5 -212.5t-268.5 -80.5q-149 0 -259.5 82t-164 214t-53.5 294zM262 559q0 -225 96 -353t258 -128q170 0 270.5 128.5t100.5 352.5q0 251 -98.5 371.5t-278.5 120.5 q-162 0 -255 -122.5t-93 -369.5zM317 1243l238 293h111l237 -293h-110l-185 197l-182 -197h-109z" />
<glyph unicode="&#xf5;" horiz-adv-x="1249" d="M139 559q0 273 127 436.5t344 163.5q240 0 370 -163.5t130 -436.5q0 -165 -56 -297t-169.5 -212.5t-268.5 -80.5q-149 0 -259.5 82t-164 214t-53.5 294zM262 559q0 -225 96 -353t258 -128q170 0 270.5 128.5t100.5 352.5q0 251 -98.5 371.5t-278.5 120.5 q-162 0 -255 -122.5t-93 -369.5zM315 1325q63 94 152 111.5t180 -39.5q48 -28 86.5 -29.5t64.5 17t50 55.5l86 -39q-44 -71 -101.5 -102t-115 -24.5t-117.5 42.5q-48 28 -87.5 29.5t-67 -16.5t-56.5 -56z" />
<glyph unicode="&#xf6;" horiz-adv-x="1249" d="M139 559q0 273 127 436.5t344 163.5q240 0 370 -163.5t130 -436.5q0 -165 -56 -297t-169.5 -212.5t-268.5 -80.5q-149 0 -259.5 82t-164 214t-53.5 294zM262 559q0 -225 96 -353t258 -128q170 0 270.5 128.5t100.5 352.5q0 251 -98.5 371.5t-278.5 120.5 q-162 0 -255 -122.5t-93 -369.5zM367 1421q0 29 21.5 50.5t51.5 21.5q29 0 50.5 -21.5t21.5 -50.5t-21.5 -50t-50.5 -21q-31 0 -52 21t-21 50zM713 1421q0 29 21 50.5t50 21.5q30 0 51 -21t21 -51q0 -29 -21 -50t-51 -21q-29 0 -50 21t-21 50z" />
<glyph unicode="&#xf7;" horiz-adv-x="1216" d="M41 502v119h1135v-119h-1135zM500 96q0 44 31 75.5t75 31.5t76.5 -31.5t32.5 -75.5q0 -46 -31.5 -77t-77.5 -31q-44 0 -75 31t-31 77zM500 1012q0 44 31 76t75 32q46 0 77.5 -32t31.5 -76q0 -45 -32 -77t-77 -32q-44 0 -75 32t-31 77z" />
<glyph unicode="&#xf8;" horiz-adv-x="1282" d="M129 55l119 133q-92 154 -92 371q0 273 127 436.5t344 163.5q225 0 354 -145l121 135l82 -70l-140 -155q82 -152 82 -365q0 -122 -32.5 -229t-93.5 -187.5t-155.5 -127t-211.5 -46.5q-190 0 -320 133l-108 -122zM279 559q0 -161 51 -278l577 647q-97 123 -280 123 q-162 0 -255 -122.5t-93 -369.5zM389 186q94 -108 244 -108q170 0 270.5 128.5t100.5 352.5q0 163 -43 270z" />
<glyph unicode="&#xf9;" horiz-adv-x="1185" d="M178 418l2 708h115l-2 -733q0 -53 5.5 -95.5t22.5 -85t45 -71t76 -46t113 -17.5q175 0 332 170v878h114v-1126h-114v127q-165 -158 -355 -158q-184 0 -269 110.5t-85 338.5zM406 1536l126 -23l123 -272l-98 23z" />
<glyph unicode="&#xfa;" horiz-adv-x="1185" d="M178 418l2 708h115l-2 -733q0 -53 5.5 -95.5t22.5 -85t45 -71t76 -46t113 -17.5q175 0 332 170v878h114v-1126h-114v127q-165 -158 -355 -158q-184 0 -269 110.5t-85 338.5zM514 1241l148 295h129l-183 -295h-94z" />
<glyph unicode="&#xfb;" horiz-adv-x="1185" d="M178 418l2 708h115l-2 -733q0 -53 5.5 -95.5t22.5 -85t45 -71t76 -46t113 -17.5q175 0 332 170v878h114v-1126h-114v127q-165 -158 -355 -158q-184 0 -269 110.5t-85 338.5zM293 1243l237 293h111l238 -293h-111l-184 197l-183 -197h-108z" />
<glyph unicode="&#xfc;" horiz-adv-x="1185" d="M178 418l2 708h115l-2 -733q0 -53 5.5 -95.5t22.5 -85t45 -71t76 -46t113 -17.5q175 0 332 170v878h114v-1126h-114v127q-165 -158 -355 -158q-184 0 -269 110.5t-85 338.5zM342 1421q0 29 21.5 50.5t52.5 21.5q29 0 50 -21.5t21 -50.5t-21 -50t-50 -21q-31 0 -52.5 21 t-21.5 50zM688 1421q0 29 21.5 50.5t50.5 21.5q30 0 50.5 -21t20.5 -51t-20.5 -50.5t-50.5 -20.5q-29 0 -50.5 21t-21.5 50z" />
<glyph unicode="&#xfd;" horiz-adv-x="1021" d="M23 1126h133l350 -993l360 993h133l-563 -1536h-121l134 379zM444 1241l148 295h129l-182 -295h-95z" />
<glyph unicode="&#xfe;" horiz-adv-x="1187" d="M201 -410v1874h110v-483q36 65 113.5 119.5t175.5 54.5q117 0 204 -40.5t140.5 -117.5t79 -180.5t25.5 -236.5q0 -189 -44.5 -324.5t-138.5 -212t-233 -76.5q-124 0 -198 28.5t-124 88.5v-494h-110zM305 371q0 -58 19 -109q67 -184 290 -184q85 0 148 38t100 107 t54.5 158t17.5 199q0 99 -17.5 180t-54 144.5t-99 98.5t-145.5 35q-102 0 -188 -63t-108 -156q-17 -62 -17 -121v-327z" />
<glyph unicode="&#xff;" horiz-adv-x="1021" d="M23 1126h133l350 -993l360 993h133l-563 -1536h-121l134 379zM272 1421q0 29 21.5 50.5t52.5 21.5q29 0 50.5 -21.5t21.5 -50.5t-21.5 -50t-50.5 -21q-31 0 -52.5 21t-21.5 50zM618 1421q0 29 21.5 50.5t50.5 21.5q30 0 51 -21t21 -51q0 -29 -21 -50t-51 -21 q-29 0 -50.5 21t-21.5 50z" />
<glyph unicode="&#x152;" horiz-adv-x="1679" d="M158 743q0 161 38 295t113 234.5t194 156.5t273 56h813v-109h-567v-575h457v-109h-457v-583h567v-109h-813q-155 0 -274 55.5t-193.5 156t-112.5 234.5t-38 297zM274 739q0 -101 15 -189.5t51 -171t91.5 -141t142.5 -93.5t198 -35h131v1267h-131q-111 0 -198 -36 t-142.5 -95.5t-91.5 -143t-51 -172.5t-15 -190z" />
<glyph unicode="&#x153;" horiz-adv-x="2017" d="M139 559q0 273 127 436.5t344 163.5q158 0 269.5 -72t169.5 -204q39 98 108.5 161.5t148.5 89t173 25.5t171 -27t138.5 -84t96.5 -155t36 -231l2 -78h-811v-21q0 -231 95.5 -358t283.5 -127q206 0 291 186l98 -49q-37 -76 -83.5 -127t-125 -85t-182.5 -34q-158 0 -270 75 t-168 214q-59 -134 -170.5 -211.5t-264.5 -77.5q-149 0 -259.5 82t-164 214t-53.5 294zM262 559q0 -225 96 -353t258 -128q170 0 270.5 128.5t100.5 352.5q0 251 -98.5 371.5t-278.5 120.5q-162 0 -255 -122.5t-93 -369.5zM1118 692h688q-6 172 -87.5 266.5t-241.5 94.5 q-311 0 -359 -361z" />
<glyph unicode="&#x178;" horiz-adv-x="1249" d="M41 1485h141l443 -703l442 703h141l-522 -813v-672h-123v674zM387 1780q0 29 21.5 50t52.5 21q29 0 50 -21t21 -50t-21 -50.5t-50 -21.5q-31 0 -52.5 21.5t-21.5 50.5zM733 1780q0 29 21.5 50t50.5 21q31 0 51.5 -20.5t20.5 -50.5t-21 -51t-51 -21q-29 0 -50.5 21.5 t-21.5 50.5z" />
<glyph unicode="&#x2c6;" horiz-adv-x="520" d="M-33 1243l238 293h110l238 -293h-111l-184 197l-182 -197h-109z" />
<glyph unicode="&#x2dc;" horiz-adv-x="544" d="M-37 1325q63 94 152 111.5t180 -39.5q48 -28 86.5 -29.5t64.5 17t50 55.5l86 -39q-44 -71 -101.5 -102t-115 -24.5t-117.5 42.5q-48 28 -87.5 29.5t-67 -16.5t-56.5 -56z" />
<glyph unicode="&#x2000;" horiz-adv-x="1022" />
<glyph unicode="&#x2001;" horiz-adv-x="2044" />
<glyph unicode="&#x2002;" horiz-adv-x="1022" />
<glyph unicode="&#x2003;" horiz-adv-x="2044" />
<glyph unicode="&#x2004;" horiz-adv-x="681" />
<glyph unicode="&#x2005;" horiz-adv-x="511" />
<glyph unicode="&#x2006;" horiz-adv-x="340" />
<glyph unicode="&#x2007;" horiz-adv-x="340" />
<glyph unicode="&#x2008;" horiz-adv-x="255" />
<glyph unicode="&#x2009;" horiz-adv-x="408" />
<glyph unicode="&#x200a;" horiz-adv-x="113" />
<glyph unicode="&#x2010;" horiz-adv-x="929" d="M131 494v149h668v-149h-668z" />
<glyph unicode="&#x2011;" horiz-adv-x="929" d="M131 494v149h668v-149h-668z" />
<glyph unicode="&#x2012;" horiz-adv-x="929" d="M131 494v149h668v-149h-668z" />
<glyph unicode="&#x2013;" horiz-adv-x="1024" d="M0 522v111h1024v-111h-1024z" />
<glyph unicode="&#x2014;" horiz-adv-x="2048" d="M0 522v111h2048v-111h-2048z" />
<glyph unicode="&#x2018;" horiz-adv-x="466" d="M94 1210q-3 116 62 208.5t149 119.5l49 -47q-35 -9 -66.5 -40t-48 -68t-21 -74.5t14.5 -59.5l140 -145q-5 -44 -35 -71t-84 -27q-66 0 -112.5 56.5t-47.5 147.5z" />
<glyph unicode="&#x2019;" horiz-adv-x="466" d="M94 1442q5 43 35 69.5t86 26.5q65 0 111 -57t47 -148q3 -115 -62 -207.5t-149 -119.5l-49 47q35 9 66 40t47.5 68t21 74t-14.5 59z" />
<glyph unicode="&#x201a;" horiz-adv-x="466" d="M94 117q5 44 35 70t86 26q65 0 111 -56t47 -149q3 -115 -62 -206.5t-149 -118.5l-49 47q34 9 65.5 40t48 67.5t21 73.5t-14.5 58z" />
<glyph unicode="&#x201c;" horiz-adv-x="784" d="M94 1210q-3 116 62 208.5t149 119.5l49 -47q-35 -9 -67 -40t-48 -68t-20.5 -74.5t14.5 -59.5l140 -145q-5 -44 -35 -71t-86 -27q-65 0 -111 56.5t-47 147.5zM422 1210q-1 117 64 209t149 119l49 -47q-35 -9 -67 -40t-48 -68t-20.5 -74.5t14.5 -59.5l139 -145 q-5 -44 -34.5 -71t-85.5 -27q-65 0 -111 56.5t-49 147.5z" />
<glyph unicode="&#x201d;" horiz-adv-x="784" d="M94 1442q5 43 35 69.5t84 26.5q66 0 112.5 -56.5t47.5 -148.5q3 -115 -62.5 -207.5t-148.5 -117.5l-49 45q35 10 66 41t47.5 67.5t21 73.5t-14.5 59zM422 1442q6 43 36.5 69.5t84.5 26.5q66 0 112 -56.5t47 -148.5q3 -115 -62 -207.5t-148 -117.5l-50 45q35 10 66 41 t48 67.5t21.5 73.5t-14.5 59z" />
<glyph unicode="&#x201e;" horiz-adv-x="784" d="M125 117q5 44 34.5 70t84.5 26q66 0 112 -56t47 -149q3 -115 -62 -206.5t-148 -118.5l-50 47q34 9 66 40t48.5 67.5t21 73.5t-14.5 58zM391 117q5 44 35 70t86 26q67 0 113 -56t47 -149q1 -115 -63.5 -206.5t-147.5 -118.5l-49 47q34 9 65.5 40t48 67.5t21 73.5t-14.5 58 z" />
<glyph unicode="&#x2022;" horiz-adv-x="577" d="M131 784q0 66 46 112t112 46t111.5 -46t45.5 -112t-45.5 -111.5t-111.5 -45.5t-112 45.5t-46 111.5z" />
<glyph unicode="&#x2026;" horiz-adv-x="1507" d="M129 94q0 46 31.5 77.5t75.5 31.5t76 -32.5t32 -76.5t-32 -75t-76 -31t-75.5 31t-31.5 75zM645 94q0 46 31.5 77.5t77.5 31.5q44 0 75 -32t31 -77q0 -44 -31 -75t-75 -31q-46 0 -77.5 31t-31.5 75zM1165 94q0 45 32 77t77 32q44 0 76 -32.5t32 -76.5t-32 -75t-76 -31 q-45 0 -77 31t-32 75z" />
<glyph unicode="&#x202f;" horiz-adv-x="408" />
<glyph unicode="&#x2039;" horiz-adv-x="911" d="M35 565l737 506v-141l-536 -365l536 -377v-141z" />
<glyph unicode="&#x203a;" horiz-adv-x="911" d="M139 47v141l539 377l-539 365v141l738 -506z" />
<glyph unicode="&#x205f;" horiz-adv-x="511" />
<glyph unicode="&#x20ac;" horiz-adv-x="1538" d="M20 518l50 96h307q-6 62 -6 129q0 71 6 138h-291l49 96h256q22 119 68 216t116.5 170.5t172 114t225.5 40.5q56 0 142 -25t122 -61l-61 -91q-73 64 -207 64q-375 0 -457 -428h641l-51 -96h-602q-6 -70 -6 -142q0 -84 4 -125h589l-51 -96h-526q79 -436 459 -436 q113 0 186.5 30t126.5 95l66 -82q-149 -156 -375 -156q-125 0 -227 40.5t-173 114.5t-117 173t-67 221h-369z" />
<glyph unicode="&#x2122;" horiz-adv-x="1556" d="M61 1389v96h644v-96h-269v-637h-106v637h-269zM799 752v733h108l221 -422l234 422h92v-733h-104v522l-222 -393l-223 397v-526h-106z" />
<glyph unicode="&#x25fc;" horiz-adv-x="1126" d="M0 0v1126h1126v-1126h-1126z" />
<glyph unicode="&#xfb03;" horiz-adv-x="1636" d="M98 1028v98h138v64q0 174 80 252t239 78q43 0 59 -2l-2 -101h-71q-104 0 -149 -58.5t-42 -180.5v-52h391v64q0 174 79.5 252t238.5 78q45 0 61 -2l-4 -101h-69q-104 0 -149 -58.5t-42 -180.5v-52h586v-1126h-115v1028h-471v-1028h-115v1028h-391v-1028h-114v1028h-138z " />
</font>
</defs>
</svg>
