<svg version="1.1" id="ciudadano" xmlns="http://www.w3.org/2000/svg" xmlns:xlink="http://www.w3.org/1999/xlink" x="0px" y="0px"
	 width="57.138px" height="159px" viewBox="4.301 0 57.138 159" enable-background="new 4.301 0 57.138 159" xml:space="preserve">
<g>
	<path fill="#C9AA85" d="M54.417,30.748c0.03,12.606-10.067,22.854-22.557,22.886C19.378,53.665,9.231,43.465,9.2,30.859
		C9.17,18.251,19.266,8.003,31.748,7.973C44.238,7.942,54.387,18.141,54.417,30.748z"/>
	<path fill="#523F32" d="M26.635,31.814c0.002,1.074-0.524,1.949-1.18,1.951c-0.65,0-1.179-0.871-1.181-1.945
		c-0.003-1.074,0.521-1.947,1.171-1.947C26.101,29.871,26.632,30.74,26.635,31.814z"/>
	<path fill="#523F32" d="M41.549,31.814c0.003,1.074-0.523,1.949-1.179,1.951c-0.65,0.002-1.18-0.871-1.183-1.945
		c-0.002-1.074,0.522-1.945,1.173-1.947C41.016,29.871,41.547,30.74,41.549,31.814z"/>
	<path fill="#B2967B" d="M34.311,38.344c0,0-0.691-0.621-1.703-0.619c-0.975,0.002-1.724,0.627-1.724,0.627s0.347-1.562,1.721-1.565
		C33.977,36.783,34.311,38.344,34.311,38.344z"/>
	<circle fill="#C9AA85" cx="10.254" cy="34.713" r="3.393"/>
	<circle fill="#C9AA85" cx="54.033" cy="34.622" r="3.393"/>
	<path fill="#AF1F31" d="M51.437,80.049c-0.715-3.484-4.621-13.47-7.578-17.58c-0.037-0.053-0.086-0.086-0.129-0.131
		c-0.363-0.426-0.842-0.818-1.488-1.154c-4.753-2.467-18.487-2.822-21.444,1.285c-2.956,4.109-6.862,14.096-7.578,17.58
		c-0.715,3.482-1.228,17.854-1.228,17.854h3.379c0,0,0.937-14.729,1.64-17.854c0.702-3.126,5.064-10.927,5.064-10.927l0.982,30.058
		l18.392,0.199l1.516-29.562c1.075,1.973,4.106,7.67,4.683,10.232c0.702,3.125,1.64,17.854,1.64,17.854h3.379
		C52.665,97.902,52.152,83.531,51.437,80.049z"/>
	<polygon fill="#0C193E" points="23.038,98.658 23.83,109.951 40.11,109.951 41.483,98.736 	"/>
	<polygon fill="#0C193E" points="23.83,107.691 26.064,152.014 30.214,152.014 30.853,107.691 	"/>
	<polygon fill="#0C193E" points="40.319,107.691 38.085,152.014 33.935,152.014 33.296,107.691 	"/>
	<polygon fill="#502212" points="33.935,152.014 33.959,157.92 35.684,157.92 35.684,156.643 37.759,157.92 45.101,157.92 
		38.085,152.014 	"/>
	<polygon fill="#502212" points="30.165,152.014 30.141,157.92 28.416,157.92 28.416,156.643 26.341,157.92 18.999,157.92 
		26.015,152.014 	"/>
	<path fill="#C9AA85" d="M11.38,99.18c-0.198,1.738-0.1,3.248,0,4.791c0.101,1.541,1.512,1.809,2.15,0.211
		c0.638-1.596,0.403-3.404,0.403-3.404s0.639,2.646,1.437,1.404c0.798-1.244,0.084-5.557,0.084-5.557l-3.407-0.148
		C12.047,96.477,11.578,97.439,11.38,99.18z"/>
	<path fill="#C9AA85" d="M53.296,99.18c0.198,1.738,0.1,3.248,0,4.791c-0.101,1.541-1.512,1.809-2.15,0.211
		c-0.638-1.596-0.403-3.404-0.403-3.404s-0.639,2.646-1.437,1.404c-0.798-1.244-0.084-5.557-0.084-5.557l3.407-0.148
		C52.629,96.477,53.098,97.439,53.296,99.18z"/>
	<rect x="29.302" y="59.596" fill="#CC2032" width="6.299" height="38.978"/>
	<path fill="#272421" d="M40.368,2.672C40.368,2.673,40.368,2.673,40.368,2.672C25.832-2.23,14.773,5.408,12.058,9.105
		c-2.915,3.963-7.046,17.374-0.611,22.713c0,0,17.601-9.346,19.318-14.05c-0.174,4.261,0,8.081,0,8.081s5.439-4.604,9.271-10.443
		C43.987,17.71,50.204,28.046,51.06,36.65C55.863,30.628,58.981,6.685,40.368,2.672z"/>
	<path fill="#E76565" d="M27.367,42.594c0,0,2.119,1.895,5.201,1.887c2.972-0.006,5.26-1.912,5.26-1.912s-1.063,4.766-5.253,4.775
		C28.383,47.354,27.367,42.594,27.367,42.594z"/>
	<path fill="#C9AA85" d="M36.017,61.263c0,0-0.123,1.833-3.419,1.833s-3.42-1.833-3.42-1.833V50.934h6.839V61.263z"/>
</g>
</svg>