<svg version="1.1" id="dataviz" xmlns="http://www.w3.org/2000/svg" xmlns:xlink="http://www.w3.org/1999/xlink" x="0px" y="0px"
	 width="222.052px" height="152.775px" viewBox="0 0 222.052 152.775" enable-background="new 0 0 222.052 152.775"
	 xml:space="preserve">
<rect x="97.942" y="5.835" fill="#FFFFFF" width="118.981" height="140.796"/>
<rect x="6.327" y="5.835" fill="#FFFFFF" width="80.114" height="140.796"/>
<rect x="12.667" y="11.784" fill="#F4F4F4" width="68.162" height="128.896"/>
<rect x="104.283" y="11.784" fill="#F4F4F4" width="106.236" height="128.896"/>
<polygon fill="#E90A8A" points="210.52,140.68 104.283,140.68 104.283,39.439 121.373,79.817 147.817,23.414 187.069,70.506 
	210.52,39.439 "/>
<g>
	<g>
		<polyline fill="none" stroke="#9FA7AA" stroke-width="0.2841" stroke-miterlimit="10" points="17.983,128.847 15.558,128.847 
			15.558,23.414 17.983,23.414 		"/>
		<line fill="none" stroke="#9FA7AA" stroke-width="0.2841" stroke-miterlimit="10" x1="27.4" y1="128.847" x2="27.4" y2="23.414"/>
		
			<line fill="none" stroke="#9FA7AA" stroke-width="0.2841" stroke-miterlimit="10" x1="39.243" y1="128.847" x2="39.243" y2="23.414"/>
		
			<line fill="none" stroke="#9FA7AA" stroke-width="0.2841" stroke-miterlimit="10" x1="51.084" y1="128.847" x2="51.084" y2="23.414"/>
		
			<line fill="none" stroke="#9FA7AA" stroke-width="0.2841" stroke-miterlimit="10" x1="62.927" y1="128.847" x2="62.927" y2="23.414"/>
		
			<line fill="none" stroke="#9FA7AA" stroke-width="0.2841" stroke-miterlimit="10" x1="74.77" y1="128.847" x2="74.77" y2="23.414"/>
		<g>
			<g>
				
					<line fill="none" stroke="#9FA7AA" stroke-width="0.2198" stroke-miterlimit="10" x1="12.667" y1="80.862" x2="15.558" y2="80.862"/>
				
					<line fill="none" stroke="#9FA7AA" stroke-width="0.2198" stroke-miterlimit="10" x1="12.667" y1="70.506" x2="15.558" y2="70.506"/>
				
					<line fill="none" stroke="#9FA7AA" stroke-width="0.2198" stroke-miterlimit="10" x1="12.667" y1="60.151" x2="15.558" y2="60.151"/>
				
					<line fill="none" stroke="#9FA7AA" stroke-width="0.2198" stroke-miterlimit="10" x1="12.667" y1="49.794" x2="15.558" y2="49.794"/>
				
					<line fill="none" stroke="#9FA7AA" stroke-width="0.2198" stroke-miterlimit="10" x1="12.667" y1="39.439" x2="15.558" y2="39.439"/>
				
					<line fill="none" stroke="#9FA7AA" stroke-width="0.2198" stroke-miterlimit="10" x1="12.667" y1="29.083" x2="15.558" y2="29.083"/>
			</g>
		</g>
		<g>
			<g>
				
					<line fill="none" stroke="#9FA7AA" stroke-width="0.2198" stroke-miterlimit="10" x1="12.667" y1="121.63" x2="15.558" y2="121.63"/>
				
					<line fill="none" stroke="#9FA7AA" stroke-width="0.2198" stroke-miterlimit="10" x1="12.667" y1="111.274" x2="15.558" y2="111.274"/>
				
					<line fill="none" stroke="#9FA7AA" stroke-width="0.2198" stroke-miterlimit="10" x1="12.667" y1="100.918" x2="15.558" y2="100.918"/>
				
					<line fill="none" stroke="#9FA7AA" stroke-width="0.2198" stroke-miterlimit="10" x1="12.667" y1="90.562" x2="15.558" y2="90.562"/>
			</g>
		</g>
		<rect x="15.558" y="72.514" fill="#EF5C43" width="47.369" height="6.34"/>
		<rect x="15.558" y="72.514" fill="#F1D61C" width="59.212" height="6.34"/>
		<rect x="15.558" y="72.514" fill="#E90A8A" width="23.498" height="6.34"/>
		<rect x="15.558" y="62.159" fill="#F1D61C" width="59.212" height="6.34"/>
		<rect x="15.558" y="62.159" fill="#E90A8A" width="11.749" height="6.34"/>
		<rect x="15.558" y="51.802" fill="#EF5C43" width="52.293" height="6.341"/>
		<rect x="15.558" y="51.802" fill="#F1D61C" width="52.293" height="6.341"/>
		<rect x="15.558" y="51.802" fill="#E90A8A" width="47.369" height="6.341"/>
		<rect x="15.558" y="41.447" fill="#F1D61C" width="59.212" height="6.34"/>
		<rect x="15.558" y="41.447" fill="#E90A8A" width="35.526" height="6.34"/>
		<rect x="15.559" y="31.09" fill="#F1D61C" width="47.245" height="6.341"/>
		<rect x="15.558" y="31.09" fill="#E90A8A" width="11.749" height="6.341"/>
		<rect x="15.558" y="113.766" fill="#F1D61C" width="59.212" height="6.34"/>
		<rect x="15.559" y="113.766" fill="#E90A8A" width="31.19" height="6.34"/>
		<rect x="15.558" y="103.41" fill="#F1D61C" width="59.404" height="6.341"/>
		<rect x="15.558" y="103.41" fill="#F1D61C" width="52.293" height="6.341"/>
		<rect x="15.558" y="103.41" fill="#E90A8A" width="12.029" height="6.341"/>
		<rect x="15.558" y="93.054" fill="#EF5C43" width="59.118" height="6.34"/>
		<rect x="15.558" y="93.054" fill="#F1D61C" width="59.212" height="6.34"/>
		<rect x="15.558" y="93.054" fill="#E90A8A" width="35.526" height="6.34"/>
		<rect x="15.558" y="82.698" fill="#F1D61C" width="54.275" height="6.341"/>
		<rect x="15.558" y="82.698" fill="#F1D61C" width="24.058" height="6.341"/>
		<rect x="15.559" y="82.698" fill="#E90A8A" width="17.763" height="6.341"/>
	</g>
	<g>
		<text transform="matrix(0.8374 0 0 1 25.8618 133.4409)" fill="#9FA7AA" font-family="'Exo-Regular'" font-size="3.0773">10</text>
	</g>
	<g>
		<text transform="matrix(0.8374 0 0 1 37.7349 133.4409)" fill="#9FA7AA" font-family="'Exo-Regular'" font-size="3.0773">20</text>
	</g>
	<g>
		<text transform="matrix(0.8374 0 0 1 49.6079 133.4409)" fill="#9FA7AA" font-family="'Exo-Regular'" font-size="3.0773">30</text>
	</g>
	<g>
		<text transform="matrix(0.8374 0 0 1 61.481 133.4409)" fill="#9FA7AA" font-family="'Exo-Regular'" font-size="3.0773">40</text>
	</g>
	<g>
		<text transform="matrix(0.8374 0 0 1 73.354 133.4409)" fill="#9FA7AA" font-family="'Exo-Regular'" font-size="3.0773">50</text>
	</g>
</g>
</svg>