<svg version="1.1" id="empresario" xmlns="http://www.w3.org/2000/svg" xmlns:xlink="http://www.w3.org/1999/xlink" x="0px" y="0px"
	 width="65px" height="159px" viewBox="0 0 65 159" enable-background="new 0 0 65 159" xml:space="preserve">
<g id="cabeza_empresario" class="cabeza">
<path fill="#F1C9A5" d="M51.672,30.444c0.03,12.607-10.067,22.855-22.557,22.887c-12.482,0.03-22.629-10.169-22.66-22.775
	C6.425,17.948,16.521,7.7,29.003,7.67C41.493,7.639,51.642,17.837,51.672,30.444z"/>
<path fill="#986E2A" d="M27.081,52.838C16.26,51.004,10.197,27.895,10.197,27.895s31.417-0.321,33.699-11.696
	c-0.162,0.806,4.698,13.204,4.735,15.001c0.175,8.385-9.827,21.363-15.277,21.715C54.813,51.53,54.21,32.77,54.187,22.812
	C54.159,11.829,42.88,2.948,28.996,2.982C15.111,3.016,4.353,11.948,3.899,22.935C2.454,57.993,27.081,52.838,27.081,52.838z
	 M25.288,42.474"/>
<path fill="#E86666" d="M24.549,42.292c0,0,2.119,1.895,5.201,1.887c2.972-0.007,5.26-1.912,5.26-1.912s-1.063,4.765-5.253,4.774
	C25.564,47.051,24.549,42.292,24.549,42.292z"/>
<path fill="#524032" d="M23.89,31.51c0.002,1.075-0.524,1.949-1.18,1.951c-0.65,0.001-1.179-0.87-1.181-1.945
	c-0.003-1.074,0.521-1.946,1.171-1.947C23.355,29.567,23.887,30.436,23.89,31.51z"/>
<path fill="#524032" d="M38.804,31.51c0.003,1.075-0.523,1.95-1.179,1.951c-0.65,0.002-1.18-0.87-1.183-1.945
	c-0.002-1.074,0.522-1.945,1.173-1.947C38.271,29.568,38.802,30.436,38.804,31.51z"/>
<path fill="#D3A884" d="M31.565,38.042c0,0-0.691-0.622-1.703-0.619c-0.975,0.002-1.724,0.627-1.724,0.627s0.347-1.562,1.721-1.565
	C31.231,36.48,31.565,38.042,31.565,38.042z"/>
<circle fill="#F1C9A5" cx="12.939" cy="34.41" r="3.393"/>
<circle fill="#F1C9A5" cx="47.288" cy="34.318" r="3.393"/>
</g>
<path fill="#0D72BA" d="M49.216,79.746c-0.715-3.483-4.621-13.471-7.578-17.579c-0.037-0.053-0.086-0.087-0.129-0.132
	c-0.363-0.425-0.842-0.818-1.488-1.153c-4.753-2.468-18.487-2.823-21.444,1.285c-2.956,4.108-6.862,14.096-7.578,17.579
	C10.283,83.229,9.771,97.6,9.771,97.6h3.379c0,0,0.937-14.729,1.64-17.854c0.702-3.126,5.064-10.927,5.064-10.927l2.702,7.445
	l-1.72,22.612l18.392,0.2l-1.568-22.812l0.266-0.734l2.818-6.017c1.075,1.973,4.106,7.67,4.683,10.232
	c0.702,3.126,1.64,17.854,1.64,17.854h3.379C50.444,97.6,49.932,83.229,49.216,79.746z"/>
<polygon fill="#A88859" points="20.817,98.356 21.609,120.744 37.89,120.744 39.263,98.507 "/>
<polygon fill="#F1C9A5" points="21.609,120.744 23.844,151.71 27.993,151.71 28.632,120.744 "/>
<polygon fill="#F1C9A5" points="37.099,120.744 34.864,151.71 30.714,151.71 30.075,120.744 "/>
<polygon fill="#082021" points="30.714,151.71 30.738,157.617 32.463,157.617 32.463,156.339 34.538,157.617 41.88,157.617 
	34.864,151.71 "/>
<polygon fill="#082021" points="28.132,151.71 28.107,157.617 26.383,157.617 26.383,156.339 24.308,157.617 16.966,157.617 
	23.981,151.71 "/>
<path fill="#F1C9A5" d="M9.159,98.876c-0.198,1.739-0.1,3.249,0,4.791c0.101,1.542,1.512,1.809,2.15,0.212
	c0.638-1.597,0.403-3.404,0.403-3.404s0.639,2.646,1.437,1.403s0.084-5.556,0.084-5.556l-3.407-0.149
	C9.826,96.173,9.357,97.137,9.159,98.876z"/>
<rect x="27.081" y="62.664" fill="#0D72BA" width="6.299" height="35.608"/>
<polygon fill="#F1C9A5" points="33.38,63.657 30.23,68.819 27.112,63.672 27.081,51.093 33.349,51.078 "/>
<g>
	<g>
		<rect x="35.676" y="103.077" fill="#985F37" width="26.495" height="17.833"/>
		
			<line fill="none" stroke="#82491F" stroke-width="0.4898" stroke-miterlimit="10" x1="35.676" y1="108.935" x2="62.171" y2="108.935"/>
		<ellipse fill="#82491F" cx="48.657" cy="108.935" rx="1.167" ry="1.084"/>
	</g>
	<path fill="none" stroke="#985F37" stroke-miterlimit="10" d="M44.405,103.709c0,0,0.534-3.666,3.48-3.842
		c4.119-0.246,4.96,1.765,5.145,3.842"/>
</g>
<path fill="#F1C9A5" d="M51.148,99.46c0.199,1.739-0.996,1.447-2.553,1.599c-3.087,0.3-1.521-4.152-1.521-4.152l3.408-0.149
	C50.482,96.757,50.951,97.721,51.148,99.46z"/>
</svg>