<?xml version="1.0" encoding="utf-8"?>
<!-- Generator: Adobe Illustrator 16.0.0, SVG Export Plug-In . SVG Version: 6.00 Build 0)  -->
<!DOCTYPE svg PUBLIC "-//W3C//DTD SVG 1.1//EN" "http://www.w3.org/Graphics/SVG/1.1/DTD/svg11.dtd">
<svg version="1.1" id="Layer_1" xmlns="http://www.w3.org/2000/svg" xmlns:xlink="http://www.w3.org/1999/xlink" x="0px" y="0px"
	 width="25px" height="25px" viewBox="7.583 6.134 25 25" enable-background="new 7.583 6.134 25 25" xml:space="preserve">
<g>
	<rect x="20.866" y="18.007" fill="#DC5BA1" width="3.255" height="1.084"/>
	<rect x="14.358" y="11.499" fill="#DC5BA1" width="10.847" height="1.083"/>
	<rect x="14.358" y="13.668" fill="#DC5BA1" width="5.423" height="5.423"/>
	<rect x="20.866" y="13.668" fill="#DC5BA1" width="4.34" height="1.085"/>
	<path fill="#DC5BA1" d="M24.629,20.177H13.274V9.33H26.29v8.365c0.693-0.371,1.435-0.445,1.908-0.445
		c0.348,0,0.838,0.039,1.347,0.204v-7.04h-2.171v-2.17H12.189v11.933c0,0.598,0.485,1.085,1.084,1.085h11.26
		C24.536,20.861,24.571,20.502,24.629,20.177z"/>
	<path fill="#DC5BA1" d="M27.951,20.63c-0.022,0.089-0.056,0.276-0.057,0.632h0.023c0.207,0,0.403-0.043,0.585-0.113
		c-0.008-0.279-0.035-0.441-0.057-0.519C28.346,20.612,28.052,20.612,27.951,20.63z"/>
	<rect x="20.866" y="15.837" fill="#DC5BA1" width="4.34" height="1.086"/>
</g>
<path fill="#FFFFFF" d="M13.074,29.591c-1.246,0-2.122-0.128-2.836-0.418c-1.326-0.524-2.091-1.621-2.091-3.006
	c0-1.315,0.569-2.525,1.52-3.388c-0.168-0.466-0.259-0.969-0.259-1.492c0-3.645,2.564-4.037,3.667-4.037
	c1.103,0,3.667,0.393,3.667,4.037c0,0.521-0.089,1.025-0.258,1.492c0.952,0.861,1.521,2.071,1.521,3.388
	c0,1.383-0.766,2.479-2.101,3.01C15.195,29.463,14.32,29.591,13.074,29.591z"/>
<path fill="#FFFFFF" d="M11.513,26.064c0.215,0.079,0.651,0.166,1.562,0.166c0.922,0,1.358-0.088,1.562-0.166
	c-0.054-0.523-0.459-0.969-1.044-1.145l-0.517-0.153l-0.517,0.153C11.969,25.096,11.562,25.55,11.513,26.064z M12.827,20.63
	c-0.025,0.091-0.059,0.284-0.059,0.657c0,0.315,0.136,0.553,0.262,0.641l0.045,0.031l0.045-0.032c0.125-0.087,0.26-0.323,0.26-0.64
	c0-0.374-0.034-0.567-0.058-0.657C13.222,20.612,12.927,20.612,12.827,20.63z"/>
<g>
	<g>
		<path fill="#FFFFFF" d="M14.075,23.312c0.59-0.409,0.986-1.161,0.986-2.023c0-1.163-0.236-2.357-1.987-2.357
			c-1.75,0-1.986,1.194-1.986,2.357c0,0.862,0.397,1.614,0.985,2.023c-1.303,0.391-2.247,1.523-2.247,2.855
			c0,0.688,0.349,1.176,1.04,1.448c0.504,0.204,1.205,0.295,2.208,0.295c1.002,0,1.703-0.092,2.208-0.295
			c0.689-0.272,1.041-0.762,1.041-1.448C16.323,24.834,15.379,23.702,14.075,23.312L14.075,23.312z"/>
	</g>
	<g>
		<path fill="#DC5BA1" d="M14.16,23.061c0.59-0.405,0.984-1.157,0.984-2.019c0-1.165-0.236-2.356-1.985-2.356
			c-1.75,0-1.985,1.191-1.985,2.356c0,0.861,0.397,1.612,0.985,2.019c-1.302,0.394-2.246,1.524-2.246,2.856
			c0,0.688,0.349,1.173,1.039,1.446c0.504,0.203,1.205,0.296,2.207,0.296c1.002,0,1.703-0.093,2.205-0.296
			c0.69-0.273,1.041-0.761,1.041-1.446C16.405,24.585,15.462,23.454,14.16,23.061L14.16,23.061z"/>
	</g>
</g>
<g>
	<g>
		<path fill="#FFFFFF" d="M29.2,23.312c0.59-0.409,0.985-1.161,0.985-2.023c0-1.163-0.237-2.357-1.987-2.357
			c-1.748,0-1.985,1.194-1.985,2.357c0,0.862,0.397,1.614,0.986,2.023c-1.304,0.391-2.247,1.523-2.247,2.855
			c0,0.688,0.35,1.176,1.04,1.448c0.504,0.204,1.204,0.295,2.206,0.295c1.003,0,1.704-0.092,2.208-0.295
			c0.69-0.272,1.041-0.762,1.041-1.448C31.447,24.834,30.502,23.702,29.2,23.312L29.2,23.312z"/>
	</g>
	<g>
		<path fill="#DC5BA1" d="M29.285,23.061c0.588-0.405,0.984-1.157,0.984-2.019c0-1.165-0.237-2.356-1.985-2.356
			c-1.749,0-1.985,1.191-1.985,2.356c0,0.861,0.398,1.612,0.985,2.019c-1.301,0.394-2.245,1.524-2.245,2.856
			c0,0.688,0.349,1.173,1.04,1.446c0.502,0.203,1.203,0.296,2.205,0.296c1.003,0,1.702-0.093,2.205-0.296
			c0.69-0.273,1.041-0.761,1.041-1.446C31.53,24.585,30.586,23.454,29.285,23.061L29.285,23.061z"/>
	</g>
</g>
</svg>
